<svg width="113" height="112" viewBox="0 0 113 112" fill="none" xmlns="http://www.w3.org/2000/svg">
<path fill-rule="evenodd" clip-rule="evenodd" d="M49.4875 47.7835C49.4092 47.9345 49.1799 49.4609 50.0801 49.4609C50.2374 49.4613 50.3895 49.4049 50.5086 49.3022C50.6277 49.1996 50.7059 49.0574 50.7287 48.9018C50.9188 47.1909 49.8006 47.1964 49.4875 47.7835ZM57.5949 47.7612C57.6452 48.3539 57.7123 48.8794 58.305 48.8794C58.4622 48.8798 58.6143 48.8234 58.7335 48.7207C58.8526 48.6181 58.9307 48.4759 58.9536 48.3203C58.9656 47.9605 58.9261 47.6009 58.8361 47.2524C58.5118 46.6541 57.511 46.7995 57.5949 47.7612ZM53.6809 53.1624C53.8543 53.1624 55.3583 53.0897 55.7106 52.8157C55.8168 52.7374 55.8056 52.5865 55.8056 52.4467C55.7721 50.8607 55.6189 49.2794 55.3472 47.7164C55.3472 47.6326 55.2745 47.6158 55.2297 47.627C55.185 47.6382 55.1626 47.7164 55.1682 47.8506C55.1682 48.3091 55.1291 48.4657 55.2912 51.0321C55.3975 52.7095 55.3527 52.2398 55.3863 52.5194C54.862 52.7115 54.3236 52.8629 53.776 52.9723C53.4126 53.0506 53.6698 53.1624 53.6809 53.1624ZM55.4478 57.0316C55.033 57.254 54.5755 57.3855 54.1059 57.4174C54.0822 57.4174 54.0594 57.4268 54.0426 57.4436C54.0258 57.4604 54.0164 57.4831 54.0164 57.5068C54.0164 57.5306 54.0258 57.5533 54.0426 57.5701C54.0594 57.5869 54.0822 57.5963 54.1059 57.5963C54.3686 57.6908 54.6492 57.7248 54.9268 57.6958C55.2045 57.6668 55.472 57.5756 55.7095 57.4289C55.9471 57.2822 56.1484 57.0838 56.2986 56.8485C56.4489 56.6132 56.5441 56.3471 56.5772 56.0699C56.5802 56.0585 56.5809 56.0466 56.5792 56.035C56.5776 56.0234 56.5737 56.0122 56.5677 56.002C56.5617 55.9919 56.5538 55.9831 56.5444 55.976C56.535 55.9689 56.5243 55.9638 56.513 55.9608C56.5016 55.9579 56.4897 55.9572 56.4781 55.9589C56.4664 55.9605 56.4552 55.9644 56.4451 55.9704C56.435 55.9764 56.4261 55.9843 56.4191 55.9937C56.412 56.0031 56.4069 56.0138 56.4039 56.0251C56.1775 56.4376 55.8481 56.7843 55.4478 57.0316ZM30.3875 13.9113C31.8245 18.7143 36.907 18.4794 37.4997 18.8373C37.4997 18.8932 38.6627 23.3718 39.1323 23.9869C39.3951 24.328 40.0269 24.1938 40.4463 24.1155C41.4304 23.9198 42.571 23.8583 43.4041 23.1929C43.6166 23.0196 43.4936 22.3151 43.4376 22.0746C43.2597 21.0693 43.0131 20.0773 42.6996 19.1057C42.5763 18.8125 42.4717 18.5118 42.3865 18.2055C42.7723 17.8637 43.192 17.562 43.6389 17.3053C44.3767 16.8027 45.0329 16.1898 45.5847 15.4881C46.6523 13.924 47.1349 12.0339 46.9478 10.1495C46.7607 8.26511 45.9158 6.50682 44.5615 5.18327C40.4183 1.11838 32.926 2.44353 30.4937 7.57077C29.6606 9.34881 29.8228 12.0438 30.3875 13.9113ZM43.1469 22.9245C42.4033 23.5228 41.3074 23.6011 40.3512 23.7968C40.094 23.8527 39.4846 24.0037 39.3224 23.7968C39.0061 23.3401 38.7785 22.828 38.6515 22.2871C40.0998 22.083 41.5164 21.696 42.8673 21.1353C43.0501 21.7142 43.1443 22.3174 43.1469 22.9245ZM42.8058 20.9061C41.3771 21.1723 39.9741 21.5614 38.6123 22.0691C38.4679 21.4201 38.2811 20.7813 38.0532 20.1568C39.4978 20.0055 40.9146 19.6556 42.2635 19.1168C42.4891 19.7079 42.6758 20.313 42.8226 20.9284L42.8058 20.9061ZM30.846 7.7441C33.1888 2.90201 40.3512 1.67751 44.2652 5.50757C45.5373 6.75532 46.3331 8.40859 46.5148 10.1812C46.6966 11.9538 46.2528 13.7342 45.2604 15.2141C44.2931 16.5784 42.3362 17.5177 42.0342 18.0098C41.928 18.1831 42.1237 18.6248 42.2467 18.9379C41.6093 19.0609 40.9104 19.2119 40.2841 19.3517C40.1164 18.5857 39.3336 15.4937 39.0429 14.7668C38.931 14.476 38.8304 14.4984 38.5341 14.5823C36.9014 14.5823 35.1066 14.1685 34.5307 12.6309C34.4611 12.4507 34.4123 12.2631 34.3853 12.0718C34.307 11.2666 34.9444 10.3273 35.6489 10.3944C35.5483 11.0094 35.6489 12.1836 36.1745 12.5359C36.7001 12.8881 37.2928 12.329 37.2928 11.8258C37.263 11.4629 37.145 11.1128 36.9492 10.8058C36.7533 10.4989 36.4855 10.2444 36.1689 10.0645C36.2568 9.86488 36.3871 9.68678 36.5507 9.54252C36.7143 9.39827 36.9073 9.29132 37.1163 9.22909C37.3253 9.16685 37.5454 9.15083 37.7613 9.18212C37.9771 9.21341 38.1836 9.29128 38.3663 9.41031C37.9246 10.2714 38.3663 12.2451 39.1491 11.781C39.9319 11.3169 39.6747 10.1763 39.1882 9.5445C38.9534 9.23698 38.9031 9.32085 39.0205 9.23139C39.9319 8.56602 40.9663 9.33762 41.4024 10.3497C42.0286 11.7419 40.6867 13.4584 39.8368 13.9784C39.8161 13.991 39.8012 14.0114 39.7954 14.035C39.7896 14.0585 39.7935 14.0835 39.8061 14.1042C39.8187 14.125 39.839 14.1399 39.8626 14.1457C39.8862 14.1514 39.9111 14.1476 39.9319 14.135C40.9719 13.5255 42.2858 11.7307 41.6876 10.2211C41.0893 8.7114 39.5852 8.1299 38.6347 9.0301C38.3954 8.86588 38.1222 8.75745 37.8354 8.71281C37.5486 8.66816 37.2555 8.68844 36.9775 8.77214C36.6996 8.85584 36.444 9.00083 36.2295 9.19644C36.0151 9.39204 35.8472 9.63327 35.7384 9.90235C34.6984 9.76815 33.8206 10.9815 33.938 12.083C34.0012 12.5698 34.1852 13.0331 34.4733 13.4306C34.7614 13.8281 35.1444 14.1471 35.5874 14.3586C36.113 14.6102 37.9805 15.0687 38.7186 14.8563C38.9758 15.4154 39.9095 18.6975 40.0773 19.3852C37.5947 19.9444 38.0979 20.2071 37.9749 19.8437C37.8296 19.3908 37.7401 18.7254 37.6171 18.6807C34.5307 17.9818 31.7462 17.4674 30.7062 13.8051C30.1974 12.0326 30.0632 9.40472 30.846 7.7441ZM36.0347 10.5062C36.2466 10.6565 36.4237 10.8507 36.5539 11.0755C36.6841 11.3002 36.7645 11.5504 36.7896 11.809C36.7896 11.96 36.4485 12.3681 36.2304 11.9208C36.0635 11.4692 36.0041 10.9848 36.0571 10.5062H36.0347ZM38.6738 9.65074C39.1211 10.0869 39.4007 11.1045 38.9143 11.4008C38.7457 11.1458 38.6365 10.8561 38.5949 10.5531C38.5533 10.2502 38.5803 9.94183 38.6738 9.65074ZM21.8999 30.9928C24.1755 30.2827 26.9321 30.8978 27.9944 33.4138C29.834 37.6744 24.9695 39.8439 25.0198 40.0675C25.1317 40.6267 25.333 41.6051 25.4168 42.1699C25.4235 42.2173 25.4487 42.2602 25.487 42.289C25.5253 42.3178 25.5735 42.3303 25.6209 42.3236C25.6684 42.3169 25.7112 42.2917 25.7401 42.2534C25.7689 42.2151 25.7813 42.167 25.7747 42.1195C25.7076 41.5604 25.6349 40.7552 25.5566 40.1738C26.3472 39.8566 27.0787 39.4087 27.7204 38.8486C31.6679 34.191 27.262 28.3146 21.6315 30.1541C20.7399 30.4141 19.9514 30.9451 19.3753 31.6735C18.7992 32.4019 18.4641 33.2915 18.4165 34.219C18.2376 36.422 19.9932 38.323 22.828 38.077C22.8708 38.0695 22.9095 38.0471 22.9374 38.0139C22.9653 37.9807 22.9806 37.9387 22.9806 37.8953C22.9806 37.8519 22.9653 37.8099 22.9374 37.7767C22.9095 37.7434 22.8708 37.7211 22.828 37.7136C20.3119 37.8422 18.9644 36.0362 19.2049 34.3029C19.2606 33.5414 19.549 32.8154 20.031 32.2234C20.5131 31.6313 21.1655 31.2017 21.8999 30.9928ZM63.6615 16.4051C63.7089 16.4177 63.7594 16.4109 63.8019 16.3863C63.8444 16.3616 63.8753 16.3211 63.8879 16.2737C63.9005 16.2262 63.8937 16.1757 63.8691 16.1332C63.8445 16.0908 63.804 16.0598 63.7565 16.0472C61.3355 15.3651 60.6365 13.2236 61.4193 11.6524C61.7242 10.9507 62.2375 10.3597 62.8896 9.95966C63.5418 9.55958 64.3012 9.36974 65.0649 9.4159C69.2695 9.52214 71.1147 13.3913 69.5379 16.1534C68.4924 18.0433 67.0945 18.5521 65.3053 18.787C65.2488 18.7949 65.1964 18.821 65.1561 18.8614C65.1157 18.9017 65.0896 18.9541 65.0816 19.0106C65.0201 19.525 64.886 20.537 64.7853 21.1241C64.7757 21.1708 64.785 21.2195 64.8112 21.2593C64.8374 21.2992 64.8784 21.327 64.9251 21.3366C64.9718 21.3462 65.0204 21.3369 65.0603 21.3107C65.1001 21.2845 65.1279 21.2435 65.1376 21.1968C65.2662 20.5929 65.4395 19.8829 65.5569 19.2846C66.4063 19.2389 67.2419 19.0499 68.0283 18.7254C69.9237 17.6072 71.0755 15.8403 70.9246 13.6038C70.5723 8.35355 62.9122 6.47487 60.7092 11.3673C59.8538 13.3578 60.8937 15.7788 63.6615 16.4051ZM94.7268 42.6395C94.6627 41.6031 94.2931 40.6089 93.6645 39.7824C93.0598 39.102 92.3222 38.5525 91.4971 38.1679C90.6721 37.7833 89.7771 37.5716 88.8671 37.5458C87.9409 37.5029 87.0242 37.7489 86.2439 38.2497C85.4636 38.7506 84.8582 39.4815 84.5115 40.3415C83.6336 42.3711 84.6904 44.7363 87.4469 45.4072C87.4715 45.4183 87.4982 45.4238 87.5251 45.4235C87.5521 45.4231 87.5786 45.4169 87.6029 45.4052C87.6271 45.3935 87.6485 45.3766 87.6656 45.3557C87.6826 45.3349 87.6949 45.3105 87.7015 45.2844C87.7081 45.2583 87.709 45.231 87.7039 45.2046C87.6989 45.1781 87.6882 45.1531 87.6724 45.1312C87.6567 45.1093 87.6364 45.0912 87.6129 45.078C87.5894 45.0648 87.5633 45.057 87.5364 45.055C85.1321 44.3281 84.4164 42.2593 85.2048 40.6602C85.5097 39.9585 86.023 39.3675 86.6751 38.9674C87.3273 38.5673 88.0867 38.3775 88.8504 38.4237C89.6258 38.4452 90.3888 38.6238 91.0932 38.9486C91.7977 39.2735 92.4289 39.7378 92.9488 40.3135C93.4726 40.9971 93.7837 41.8196 93.8434 42.6787C94.2404 47.6102 88.9286 47.627 88.8783 48.0184C88.8112 48.5775 88.6882 49.5616 88.582 50.1319C88.5723 50.1786 88.5816 50.2272 88.6079 50.2671C88.6341 50.3069 88.675 50.3347 88.7217 50.3444C88.7685 50.354 88.8171 50.3447 88.8569 50.3185C88.8968 50.2923 88.9246 50.2513 88.9342 50.2046C89.0684 49.6063 89.2362 48.8906 89.3536 48.2924C90.2045 48.2446 91.0416 48.0556 91.8305 47.7332C93.698 46.6373 94.8778 44.8984 94.7268 42.6395ZM27.905 46.4081C28.1454 45.4128 27.4241 44.3672 26.7084 44.4511C26.2443 44.4009 25.7768 44.3878 25.3106 44.412C24.0973 44.7027 23.527 46.2907 24.6676 47.0679C25.976 47.9401 27.6701 47.3362 27.905 46.4081ZM27.0383 46.2962C26.8397 46.4619 26.5965 46.5651 26.3394 46.5926C24.8185 46.8051 24.4943 45.4743 25.5175 45.0382L26.7196 44.8145C27.2396 44.8593 27.357 45.972 27.0383 46.2683V46.2962ZM64.3212 23.26C63.0185 22.7847 61.6094 24.2553 62.532 25.4965C63.4546 26.7378 65.2829 26.7378 65.8085 25.9103C66.3341 25.0828 66.0154 23.8303 65.3109 23.6738C65.2494 23.6458 64.7629 23.4222 64.3212 23.26ZM65.0257 25.4965C64.7756 25.5817 64.5077 25.6006 64.2481 25.5517C63.9885 25.5027 63.7459 25.3874 63.544 25.217C63.3788 25.0983 63.243 24.9434 63.147 24.7641C62.9849 24.3112 63.5664 23.8471 63.9913 23.8191L65.1991 23.9925C65.6687 24.2441 65.4339 25.34 65.0257 25.5133V25.4965ZM89.0908 52.7151C88.979 52.6648 88.403 52.4243 88.1067 52.3125C86.7983 51.8372 85.3949 53.3078 86.3175 54.549C87.2401 55.7903 89.0628 55.7903 89.594 54.9628C90.1252 54.1353 89.8009 52.8716 89.0908 52.7151ZM88.8056 54.5658C88.5554 54.6504 88.2877 54.6691 88.0281 54.6201C87.7686 54.5712 87.5261 54.4562 87.3239 54.2862C87.1601 54.1638 87.0247 54.0074 86.9269 53.8278C86.7704 53.3804 87.3463 52.9164 87.7712 52.8884L88.979 53.0617C89.4486 53.2966 89.2138 54.3869 88.8056 54.5658Z" fill="black"/>
<path fill-rule="evenodd" clip-rule="evenodd" d="M84.5227 83.5568C83.4044 78.055 79.0544 69.5785 73.8321 67.4147L72.7809 65.2173C72.7734 65.2014 72.7625 65.1872 72.7491 65.1758C72.7356 65.1644 72.7199 65.1561 72.7029 65.1513C72.6859 65.1465 72.6682 65.1455 72.6507 65.1482C72.6333 65.1509 72.6167 65.1573 72.602 65.167L71.4837 65.8883C71.1285 63.5149 70.044 61.3108 68.3805 59.5812C69.5435 57.7864 71.4054 57.2385 73.3288 57.1546C74.9224 57.0875 76.0965 56.9925 77.0191 55.6282C78.8475 52.9332 78.417 50.3052 76.2699 47.8003C72.999 43.9871 71.713 45.1277 70.1194 43.0198C67.0889 39.0611 66.4012 33.207 61.9393 30.1597C56.2362 26.2961 53.1609 29.4105 51.9644 30.3722C50.2143 29.3098 46.3116 29.6789 44.6342 31.1158C43.2084 32.3347 41.3185 33.9115 40.5861 35.6728C39.0261 39.391 39.1938 43.7914 36.9126 47.1629C36.3534 48.0016 35.3973 48.5663 34.7208 49.3603C33.7922 50.5246 33.0022 51.7931 32.3668 53.14C31.5393 54.7056 30.9075 56.4445 31.6623 58.066C32.6744 60.2354 34.9388 62.3042 37.3543 62.1477C38.7521 62.0526 40.6028 61.2139 41.9168 61.7675C42.6996 62.0918 43.0015 62.8466 43.5942 63.4784C44.9361 64.9713 48.0673 65.4242 49.8006 64.3898C47.8939 66.8164 44.9864 66.7325 39.9151 69.5282C32.132 73.8112 29.2916 78.6756 28.4585 83.6575C28.1398 85.2074 27.9046 86.7734 27.754 88.3486C27.2731 96.4728 29.7389 106.772 37.7345 108.477C39.9263 108.947 42.4368 109.249 44.6062 108.707C48.7159 107.683 53.6194 104.916 57.2202 102.668C58.8976 101.622 65.104 97.4345 67.9891 96.8865C68.1628 98.3788 68.539 99.8404 69.1074 101.231C71.4166 105.978 75.1125 108.785 80.29 107.566C83.6448 106.778 84.6009 103.205 84.6904 99.7828C86.3734 96.1708 85.0371 86.1847 84.5227 83.5568ZM65.1767 57.3783C66.172 57.5628 66.8541 58.4965 67.5922 59.257C69.5435 61.2083 70.8854 63.2995 71.288 65.9665C69.6721 66.9953 68.621 67.6439 68.5986 67.6775C68.5762 67.711 67.799 65.7317 67.3294 65.4913C66.6267 65.1424 65.9893 64.6752 65.4451 64.1102C65.0257 63.6461 64.5113 62.8298 64.5784 62.2148C64.8756 62.0566 65.2 61.9561 65.5345 61.9184V61.5718C63.8068 61.6221 63.2141 63.1988 63.0576 63.5511C62.9458 63.8027 62.7892 64.0543 62.4314 64.0152C62.0735 63.976 61.9449 63.5623 62.0791 63.1932C62.2133 62.8242 62.5376 61.2027 64.8244 60.8505C64.8531 60.8464 64.8806 60.8368 64.9056 60.8221C64.9305 60.8074 64.9522 60.788 64.9696 60.7649C64.987 60.7418 64.9997 60.7155 65.0069 60.6875C65.0142 60.6595 65.0158 60.6303 65.0118 60.6017C65.0077 60.573 64.9981 60.5455 64.9834 60.5206C64.9687 60.4956 64.9492 60.4739 64.9261 60.4565C64.903 60.4391 64.8767 60.4264 64.8487 60.4192C64.8207 60.412 64.7916 60.4103 64.7629 60.4144C64.2843 60.4752 63.8204 60.621 63.3931 60.8449C63.0089 61.0325 62.6679 61.2978 62.3917 61.6241C62.1154 61.9504 61.91 62.3305 61.7884 62.7403C61.52 63.5064 60.5806 63.1653 60.8043 62.5055C61.0293 61.8637 61.3642 61.2658 61.7939 60.7386C62.2712 60.2837 62.8444 59.9417 63.4713 59.7378C63.9634 59.5365 64.3827 59.6316 64.4946 59.4694C64.6064 59.3073 64.3436 58.7649 64.2094 58.6028C63.4881 57.7417 61.4137 58.4853 60.6198 57.5236C60.111 56.8918 61.1789 56.8695 61.6094 56.8135C62.8172 56.6794 63.9634 57.149 65.1767 57.3783ZM67.2287 71.2336C65.6304 71.7545 63.9999 72.171 62.3475 72.4804C62.9066 69.299 63.2868 66.5704 63.2309 65.5807C64.5337 65.8323 66.0266 66.0113 67.6592 66.2796C68.101 67.0121 68.3414 67.6272 68.4476 67.8005L67.3629 68.4882C67.307 68.5609 67.3182 68.259 67.2287 71.2336ZM61.1565 87.3869C61.4041 88.4605 61.5797 89.5495 61.6821 90.6466C59.3897 90.5012 57.6396 90.5292 56.7785 90.4957C56.8121 88.9245 56.8289 88.438 56.8568 88.1082C58.2679 87.7505 59.706 87.5093 61.1565 87.3869ZM52.3614 73.6155C55.5333 73.6381 58.7011 73.3798 61.8275 72.8439C60.8322 78.2115 59.317 84.6639 58.6013 85.9555C56.9575 81.4713 57.1252 81.4545 52.3614 73.6155ZM59.071 85.8828C59.9768 83.8532 61.3522 77.7978 62.2692 72.7544C63.9382 72.4416 65.584 72.0157 67.1952 71.4796C67.0218 77.5182 66.9715 85.0553 67.3349 91.1107C66.2726 91.0156 64.7294 90.8815 63.2309 90.764C63.1359 89.8582 62.7612 86.7047 62.4425 85.8772C62.3587 85.6536 62.258 85.5641 61.8834 85.5529C60.9484 85.5939 60.0177 85.7042 59.0989 85.8828H59.071ZM61.0671 64.5519C60.5008 64.2209 60.0484 63.7256 59.7699 63.1317C60.0287 63.2409 60.2987 63.3215 60.575 63.3722C60.6799 63.4902 60.8151 63.5771 60.966 63.6234C61.1168 63.6698 61.2775 63.6738 61.4305 63.635C61.6821 63.5567 61.52 63.5231 61.6542 63.8754C61.7057 64.0173 61.7925 64.1437 61.9064 64.2428C62.0204 64.3419 62.1576 64.4103 62.3053 64.4416C62.453 64.4729 62.6062 64.4661 62.7506 64.4218C62.8949 64.3776 63.0256 64.2973 63.1303 64.1885C63.3483 63.9928 63.3651 63.758 63.6279 63.2547C63.8851 63.2044 64.1367 63.1373 64.3827 63.0646C65.0481 64.8091 67.1337 65.6534 67.279 65.782C64.8244 65.4186 62.6494 65.1893 61.095 64.5519H61.0671ZM50.3485 63.881C51.6904 62.3266 51.4165 61.2139 50.0354 60.1124C47.2397 57.9206 47.5864 58.5077 46.4122 56.0587C45.0312 52.0833 46.2221 45.821 47.2453 41.7449C47.5249 40.6267 49.4315 39.4301 50.8182 39.609C52.7416 39.8551 51.9365 40.8671 53.5803 41.443C53.8657 41.5264 54.1609 41.5716 54.4581 41.5772C54.4758 41.5827 54.4943 41.5847 54.5127 41.583C54.5311 41.5814 54.549 41.5761 54.5653 41.5675C54.5817 41.559 54.5962 41.5473 54.608 41.5331C54.6198 41.5189 54.6288 41.5026 54.6343 41.4849C54.6398 41.4673 54.6418 41.4488 54.6401 41.4304C54.6384 41.412 54.6332 41.3941 54.6246 41.3778C54.616 41.3614 54.6043 41.3469 54.5902 41.3351C54.576 41.3232 54.5596 41.3143 54.542 41.3088C53.67 40.7858 52.8661 40.1566 52.1489 39.4357C52.49 38.0435 53.3566 37.2831 54.9837 37.2719C56.102 37.2719 56.9854 38.1218 57.7794 38.8486C58.7411 39.7265 59.7755 42.0972 59.6972 43.4C59.5203 44.9095 59.8742 46.4336 60.698 47.7109C61.2572 48.6838 62.3083 49.5281 62.9346 50.35C63.2812 50.8085 63.08 52.8549 62.8787 53.7551C62.6159 54.5435 62.0567 56.0475 61.9281 56.3886C59.591 56.4725 59.6916 57.7249 60.8099 58.2617C59.7643 59.5141 57.2091 60.9064 59.0374 62.6621C59.4288 63.484 60.055 64.6078 60.8937 64.9489C61.4889 65.1901 62.1046 65.3773 62.7333 65.508C62.8563 66.3747 62.4537 69.243 61.8387 72.5811C58.6297 73.1149 55.3793 73.36 52.1266 73.3135C50.1081 70.0091 48.1008 66.8779 47.592 66.3747C48.7217 65.8004 49.6816 64.9407 50.3765 63.881H50.3485ZM46.5352 66.8276C47.6535 66.4082 47.0944 66.4809 47.3628 66.6878C47.6311 66.8947 49.4763 69.819 51.6177 73.2912C49.0793 73.252 46.2221 73.0619 45.143 72.9389C45.4673 72.6817 44.6286 68.2646 44.3043 67.7054C45.115 67.3811 45.8643 67.096 46.5632 66.8276H46.5352ZM43.8905 67.8788C44.3503 69.5252 44.6628 71.2092 44.8243 72.9109C42.4117 72.5652 40.045 71.9519 37.768 71.0826C39.7192 69.8345 41.7775 68.7624 43.9185 67.8788H43.8905ZM44.3994 108.304C42.3026 108.83 39.848 108.522 37.7345 108.069C34.43 107.359 32.1432 105.151 30.6559 102.321C28.2908 97.8482 27.5863 91.2002 28.3075 86.5426C28.4529 85.6088 28.6374 84.6863 28.794 83.7469C29.683 78.4184 32.9204 74.4038 37.4382 71.3677C41.8721 72.9948 44.8522 73.5651 51.819 73.6043C56.6443 81.4321 56.7506 82.2149 58.1316 86.045C57.7067 86.1232 55.7385 86.5202 55.4031 86.7942C55.2689 86.9004 55.2689 87.1129 55.4031 90.4733C50.315 90.5739 45.3387 91.3679 40.6588 94.3872C40.0996 90.3559 40.7426 89.137 42.0454 86.8277C44.0918 83.199 43.7228 82.528 42.4312 80.4648C42.2183 80.1863 42.0659 79.8663 41.9839 79.5255C41.9839 79.3913 41.4248 79.2068 42.2131 80.5934C43.3314 82.6287 43.6333 83.1095 41.654 86.6041C40.2059 89.1649 39.6132 90.4789 40.4854 94.5046C40.094 94.7674 39.6467 95.0638 39.2162 95.4104C38.5584 95.8736 37.9412 96.3917 37.3711 96.9592C37.3599 96.9807 37.3578 97.0058 37.3652 97.0288C37.3725 97.0519 37.3887 97.0711 37.4102 97.0822C37.4317 97.0934 37.4567 97.0955 37.4798 97.0881C37.5029 97.0808 37.5221 97.0646 37.5332 97.0431C37.7065 96.7356 40.5973 94.8066 41.3744 94.4096C45.7133 92.2234 50.5107 90.3335 58.3665 90.8535C58.2675 94.1776 58.6116 97.5001 59.3897 100.733C55.3527 103.283 49.6161 107.007 44.4273 108.304H44.3994ZM59.7363 100.51C59.018 97.3565 58.7005 94.1253 58.7914 90.8926C67.279 91.4518 64.6176 91.2728 67.3573 91.4518C67.458 93.0844 67.6089 94.8569 67.8326 96.484C65.6408 96.8921 61.6989 99.2964 59.7643 100.51H59.7363ZM80.0552 107.163C75.1181 108.332 71.6123 105.637 69.387 101.074C66.9268 96.0423 67.3349 74.1858 67.4747 68.6168L72.5852 65.4521C79.4849 80.353 80.3124 81.762 81.8612 86.6991C83.8629 92.9894 86.502 105.676 80.0832 107.163H80.0552ZM84.5618 98.6087C84.4323 95.6147 83.971 92.6443 83.1863 89.752C81.4139 82.8579 79.4961 79.4025 74.1899 68.2478L74.3465 68.1639C79.032 70.6688 83.0018 78.4464 84.0418 83.6407C84.6121 86.3525 85.7024 95.2203 84.5898 98.6087H84.5618Z" fill="black"/>
</svg>
