<svg width="113" height="113" viewBox="0 0 113 113" fill="none" xmlns="http://www.w3.org/2000/svg">
<path fill-rule="evenodd" clip-rule="evenodd" d="M32.9543 26.871V27.2679C32.9543 27.3792 32.9985 27.4858 33.0771 27.5645C33.1557 27.6431 33.2624 27.6873 33.3736 27.6873C33.4848 27.6873 33.5915 27.6431 33.6702 27.5645C33.7488 27.4858 33.793 27.3792 33.793 27.2679V26.8486C33.7872 26.7383 33.7394 26.6345 33.6592 26.5585C33.5791 26.4825 33.4729 26.4403 33.3624 26.4404C33.3071 26.4411 33.2525 26.4529 33.2019 26.4751C33.1512 26.4972 33.1055 26.5293 33.0674 26.5695C33.0294 26.6096 32.9998 26.657 32.9803 26.7088C32.9609 26.7605 32.952 26.8157 32.9543 26.871ZM32.7921 25.7024C33.4072 25.557 33.9104 25.1432 33.0158 25.1991C32.7942 25.2301 32.5754 25.2787 32.3616 25.3445C31.5229 25.6912 32.2498 25.831 32.7921 25.7024ZM84.0925 29.5939C83.8349 30.1345 83.4038 30.5734 82.868 30.8408C82.8472 30.8482 82.8297 30.8626 82.8183 30.8815C82.807 30.9005 82.8026 30.9228 82.8059 30.9446C82.8092 30.9664 82.82 30.9864 82.8364 31.0011C82.8529 31.0158 82.8739 31.0244 82.896 31.0253C83.0769 31.0572 83.263 31.044 83.4376 30.9868C83.6122 30.9297 83.7701 30.8304 83.8973 30.6977C84.0244 30.5651 84.1169 30.4031 84.1665 30.2262C84.2162 30.0493 84.2215 29.8628 84.182 29.6834C84.182 29.6597 84.1725 29.6369 84.1558 29.6201C84.139 29.6034 84.1162 29.5939 84.0925 29.5939ZM81.8672 25.16C81.7597 25.1325 81.6457 25.1481 81.5496 25.2035C81.4535 25.2588 81.3829 25.3496 81.3528 25.4563C81.3021 25.6384 81.2926 25.8293 81.3248 26.0155C81.3248 26.1267 81.369 26.2334 81.4476 26.312C81.5263 26.3906 81.6329 26.4348 81.7441 26.4348C81.8554 26.4348 81.962 26.3906 82.0407 26.312C82.1193 26.2334 82.1635 26.1267 82.1635 26.0155C82.1635 25.6129 82.253 25.2662 81.8672 25.16ZM62.6386 80.0947C62.1857 79.8655 53.5248 80.4302 53.3067 81.4031C53.262 81.6156 53.4017 82.4319 53.6478 82.5661C54.1342 82.8233 62.4653 82.3536 62.9238 81.4478C63.0541 81.2275 63.0971 80.9663 63.0443 80.7158C62.9916 80.4653 62.8468 80.2437 62.6386 80.0947ZM53.754 82.3313C53.5816 82.0604 53.4886 81.7466 53.4856 81.4255C53.5974 80.9222 58.2103 80.6483 58.7191 80.6147C58.7069 81.0665 58.8233 81.5125 59.0546 81.9007C58.4172 82.0014 54.0559 82.4934 53.754 82.348V82.3313ZM62.5156 81.213C62.0739 81.5261 59.8318 81.8113 59.295 81.8784C59.342 81.4358 59.2481 80.9896 59.0266 80.6035C59.692 80.5588 61.8223 80.4414 62.4541 80.4973C62.6218 80.6203 62.6274 81.0005 62.5156 81.2242V81.213ZM47.9446 81.4199C47.9295 81.4105 47.9121 81.4055 47.8943 81.4055C47.8765 81.4055 47.8591 81.4105 47.844 81.4199C47.844 81.364 37.1645 87.3802 36.8403 88.0176C36.8258 88.0482 36.8183 88.0816 36.8183 88.1155C36.8183 88.1493 36.8258 88.1827 36.8403 88.2133C37.1813 89.1918 48.3248 99.2674 48.7889 99.4966C48.9231 99.5637 49.0908 99.4463 49.6164 99.1667C50.7347 98.5685 60.2791 93.4692 61.2631 92.6472C61.5371 92.3677 61.7049 89.8516 61.5539 89.5664C61.4029 89.2813 47.9446 81.4758 47.9446 81.4199ZM48.9119 99.0325C47.721 98.0876 38.2884 89.5888 37.2428 88.1462C38.2157 87.2293 47.6259 81.7777 47.9111 81.61C49.3536 82.4878 59.7367 88.806 61.0674 89.7006C60.3641 89.9039 59.6951 90.2111 59.0825 90.612C58.7638 90.9195 59.5578 91.4898 60.6593 92.5578C58.9763 93.6425 50.6284 98.1156 48.9119 99.0325ZM60.978 92.2391C60.9221 92.1832 59.5746 90.8692 59.5131 90.8189C60.0562 90.4798 60.6161 90.1682 61.1905 89.8851C61.1922 90.6752 61.1173 91.4635 60.9668 92.2391H60.978Z" fill="black"/>
<path fill-rule="evenodd" clip-rule="evenodd" d="M56.3315 91.2103C55.9401 91.378 51.1651 92.9603 49.8176 93.5083C49.4216 93.7057 48.99 93.8216 48.5484 93.8494C48.4701 93.8494 48.923 92.9771 52.3505 90.3045C52.7083 90.0249 53.3961 89.4937 53.4688 89.0576C53.7986 87.615 49.8903 89.7733 46.3957 91.1376C46.0343 91.3317 45.64 91.4568 45.2327 91.5066C45.1936 91.2773 45.982 90.5561 46.0323 90.5002C48.1179 88.1965 50.7626 87.246 50.5836 86.3961C50.3097 85.0654 45.4564 87.6542 44.4332 88.0735C43.5721 88.437 42.1967 88.8731 42.2805 88.8731C42.096 88.9458 42.2805 89.0744 42.3141 89.0576C42.3476 89.0408 44.1201 88.4985 44.5506 88.3084C45.1936 88.0623 49.4933 85.988 50.209 86.4744C50.4942 86.6757 47.4525 88.314 45.736 90.2094C45.434 90.5337 44.6177 91.1935 44.8693 91.7302C44.9155 91.8132 44.9854 91.8804 45.0701 91.9233C45.1548 91.9661 45.2504 91.9826 45.3446 91.9707C46.1777 91.9707 51.8585 89.1247 53.027 89.0352C52.7588 89.3892 52.4383 89.7003 52.0765 89.9578C51.2434 90.6176 48.828 92.5857 48.2688 93.4915C47.9781 93.9612 48.2185 94.2408 48.5987 94.2463C49.1019 94.2463 49.717 93.9053 51.2322 93.335C56.3707 91.3556 56.5328 91.4451 56.4489 91.2606C56.4446 91.2495 56.4381 91.2394 56.4299 91.2308C56.4216 91.2223 56.4117 91.2154 56.4008 91.2108C56.3899 91.2061 56.3781 91.2036 56.3662 91.2035C56.3543 91.2034 56.3425 91.2057 56.3315 91.2103Z" fill="black"/>
<path fill-rule="evenodd" clip-rule="evenodd" d="M109.857 69.8905C109.784 64.042 109.259 52.1045 108.101 46.3175C107.492 43.2479 106.172 39.0488 103.718 37.0191C102.678 36.1637 101.146 35.3417 98.367 33.8041C98.4006 33.7314 93.9778 31.9422 93.7709 32.5349C93.5991 31.5151 93.3582 30.5082 93.0497 29.5212C93.4634 29.387 93.2789 28.1793 93.4522 27.4971C93.6256 26.815 94.2798 26.3285 94.6152 25.7694C95.3701 24.5225 95.4987 22.3475 95.3589 20.8994C95.2247 19.5519 93.2565 16.5437 91.9594 16.0517C90.6622 15.5596 89.3314 15.5764 87.9616 15.3024C86.8433 15.0732 86.0158 14.4526 84.7633 14.296C83.5109 14.1395 82.7616 14.8551 81.6881 14.8551C80.6146 14.8551 79.4068 14.022 78.283 13.9549C77.6724 13.9455 77.0791 14.1579 76.6133 14.5528C76.1475 14.9476 75.8408 15.4981 75.7501 16.102C75.6145 17.0021 75.7212 17.9221 76.0592 18.7673C76.3973 19.6125 76.9545 20.3523 77.6735 20.9105C78.549 21.4644 79.5326 21.8247 80.5587 21.9673C80.4916 24.8245 80.7935 24.0585 80.458 24.3101C80.1225 24.5617 80.2288 26.3229 80.3462 26.8094C80.3965 27.0051 80.4468 27.0778 80.6872 27.156C80.5531 27.7152 79.6081 28.9229 80.458 29.2192C80.5698 29.2584 81.0171 29.3367 81.0619 29.3534C81.1764 29.8837 81.3451 30.4008 81.5651 30.8966C81.782 31.3952 82.0988 31.8439 82.496 32.2151C82.8932 32.5863 83.3623 32.8722 83.8743 33.0549C84.6795 33.368 85.3169 33.4519 85.7865 33.614C85.8512 33.8452 85.8851 34.084 85.8872 34.3241C83.8905 34.8489 82.0093 35.7421 80.3406 36.9576C77.3157 39.4122 73.016 49.594 71.8921 50.7123C71.456 51.1428 61.1847 53.1333 59.6695 54.1621C59.3731 54.3634 59.3619 54.5367 59.4011 54.8946C59.0321 54.9617 57.4777 55.2524 57.3043 55.5823C57.2532 55.822 57.2667 56.0709 57.3435 56.3036C55.96 56.0452 54.564 55.8586 53.1612 55.7445C52.9045 55.7505 52.6519 55.8103 52.4197 55.9201C52.1876 56.0299 51.9811 56.1872 51.8137 56.3819C51.344 56.941 51.7242 56.846 51.2266 56.7677C50.1698 56.6167 46.3845 57.8859 45.9092 58.1096C45.9092 57.9083 45.9092 57.7685 45.6968 57.6567C45.0727 57.4759 44.4207 57.4114 43.7733 57.4666C43.382 57.7294 44.8916 57.6399 45.5178 57.9642C45.5178 58.3948 45.5738 62.8119 45.5178 63.6786C45.5178 63.8351 45.5178 63.8127 45.4004 63.8295C44.8413 63.9078 44.0361 63.8295 43.7901 64.0084C43.8796 62.0627 43.7901 57.2989 43.5217 57.0193C43.3596 56.8516 40.3738 56.4937 37.1253 56.1023C37.1368 53.7519 37.0061 51.403 36.7339 49.0684C36.1356 43.8797 34.8832 37.7628 30.9692 34.6596C31.196 34.7522 31.4456 34.7737 31.6849 34.7211C32.0045 34.5943 32.3484 34.5408 32.6914 34.5645C33.2505 34.7155 33.3232 35.1237 34.721 34.1843C34.8105 34.1228 35.0453 34.1396 35.2298 33.9551C35.8616 33.3233 35.5429 32.4678 35.5429 31.8304C35.6355 31.3971 35.6656 30.9527 35.6324 30.5108C35.6152 30.445 35.5831 30.3839 35.5385 30.3325C35.4939 30.2811 35.438 30.2407 35.3752 30.2145C35.3752 30.03 35.5709 29.7001 35.2913 29.3423C35.6939 29.1298 36.13 28.8838 35.9064 28.4476C35.4791 27.7643 35.1267 27.037 34.8552 26.2782C34.6819 25.6296 34.9167 24.8021 34.9055 24.1032C34.9055 23.6223 34.9558 23.0464 34.9055 22.5208C35.3368 22.2197 35.6663 21.7946 35.8504 21.3019C35.8912 21.1028 35.8825 20.8966 35.825 20.7017C35.7674 20.5067 35.6629 20.3288 35.5206 20.1837C35.336 20.0663 35.2969 20.1837 35.3025 19.837C35.3227 19.7154 35.3172 19.5908 35.2864 19.4714C35.2556 19.352 35.2001 19.2404 35.1236 19.1437C34.8887 18.9144 34.352 18.6628 34.1842 18.428C33.8991 18.0086 33.7313 17.5893 33.1946 17.4216C32.8144 17.2985 32.4565 17.539 32.1993 17.4551C31.8471 17.3433 31.4836 16.9631 31.0811 17.3656C30.9912 17.4144 30.8925 17.4449 30.7908 17.4555C30.6891 17.466 30.5864 17.4564 30.4884 17.4271C30.1529 17.142 30.069 16.65 29.4987 16.5437C29.1744 16.4878 28.537 16.6444 28.291 16.5437C27.8879 16.2471 27.4433 16.0115 26.9714 15.8448C26.4439 15.7946 25.9116 15.84 25.4003 15.979C25.0424 16.0517 24.5839 16.0125 24.2093 16.0685C23.4321 16.1915 23.2085 16.8624 22.6941 17.1867C22.1797 17.511 21.313 17.5166 20.821 18.2435C20.4072 18.8585 20.4967 19.5239 20.3345 20.1389C20.2674 20.4017 19.9096 20.6981 19.7754 20.9665C19.4623 21.5871 19.7027 22.2133 19.6971 22.7501C19.6915 23.2869 19.3169 23.7789 19.4231 24.4275C19.5095 24.7514 19.6513 25.0579 19.8425 25.3333C19.8448 25.4239 19.8335 25.5144 19.809 25.6017C19.6384 26.0417 19.6033 26.5226 19.7083 26.9827C19.7998 27.4238 20.0129 27.8305 20.3234 28.1569C20.7147 28.498 20.916 28.4085 21.2012 28.8949C21.3211 29.1522 21.5014 29.3766 21.7268 29.5491C22.1405 29.8287 22.6493 29.5883 22.8954 29.7113C23.0484 29.7921 23.2153 29.8433 23.3874 29.8622C23.2498 29.9318 23.1309 30.0334 23.0407 30.1586C19.9991 30.5444 15.9845 32.7641 13.5355 35.8002C12.5682 37.0471 10.9411 38.8475 10.3317 40.2901C7.05515 47.693 8.65427 59.3005 7.33471 62.8846L4.06938 71.4002C3.91283 71.8083 3.51025 73.838 3.65563 74.5369C3.89046 75.5769 4.98077 74.2741 5.64614 73.536C5.23238 75.0066 5.23797 75.3924 5.01991 81.1794C4.95281 82.991 4.89131 84.9647 4.86335 86.6253C4.86175 86.6372 4.86272 86.6494 4.86621 86.6609C4.86971 86.6724 4.87563 86.683 4.88358 86.692C4.89154 86.701 4.90134 86.7082 4.91232 86.7131C4.9233 86.718 4.9352 86.7205 4.94722 86.7204C5.10378 86.7204 5.00313 86.8993 5.23238 82.2809C5.39453 79.0323 5.57904 76.0018 5.59581 75.7558C5.67858 74.8001 5.8892 73.8598 6.22204 72.9601C7.78352 71.7936 9.54064 70.915 11.4108 70.3658C13.4921 69.809 15.69 69.8653 17.7402 70.5279C18.2993 70.7124 19.8034 71.0871 20.3401 70.8354C21.4584 70.2763 24.3379 68.4256 24.8132 67.3017C25.048 66.7426 25.2381 66.2897 25.4226 65.8703C26.2781 65.9486 27.3293 66.1667 28.263 66.1779C29.3086 66.1779 29.9796 66.0101 31.137 64.9869C35.392 65.082 40.0831 64.9534 42.3196 64.8695C43.8125 65.4286 48.3974 67.0669 49.51 68.1684C49.9462 68.5933 50.2034 69.7787 50.3599 71.0982C50.5661 72.6755 50.6204 74.2688 50.5221 75.8564C47.458 76.4435 43.5553 77.3717 40.536 78.1209C40.3669 78.0739 40.1902 78.0606 40.016 78.0818C39.2164 78.1657 39.591 78.49 39.3283 77.6792C39.3408 77.6822 39.354 77.682 39.3664 77.6786C39.3789 77.6753 39.3904 77.6689 39.3998 77.66C39.4092 77.6512 39.4163 77.6401 39.4204 77.6278C39.4245 77.6156 39.4255 77.6025 39.4233 77.5898C39.4151 76.5151 39.2895 75.4445 39.0487 74.3971C39.0095 74.2406 38.7356 74.1623 38.5678 74.112C36.7562 73.5864 29.7615 72.8819 28.2239 73.2789C27.223 73.5416 20.2954 77.1201 19.9823 77.8805C19.6692 78.6409 18.8193 83.2146 18.6627 84.0589C15.0396 85.1157 12.1824 85.9879 10.7846 86.4632C10.773 86.4669 10.7623 86.473 10.7531 86.481C10.744 86.489 10.7365 86.4988 10.7313 86.5098C10.7261 86.5208 10.7231 86.5328 10.7227 86.545C10.7222 86.5571 10.7243 86.5692 10.7286 86.5806C10.7957 86.7875 12.6297 85.837 31.4165 80.8998C31.6053 81.3818 31.8472 81.8413 32.1378 82.2697C31.5787 82.4039 30.9469 82.6499 30.7623 83.1643C30.7295 83.2729 30.7241 83.388 30.7466 83.4992C30.769 83.6104 30.8186 83.7143 30.8909 83.8017C31.3496 84.3154 31.9612 84.6682 32.6354 84.8082C33.8177 85.1045 35.0462 85.1691 36.253 84.9983C37.4118 84.8972 38.5537 84.653 39.6525 84.2714C40.8491 83.7682 40.7708 83.0189 40.3123 82.6779C39.8398 82.4 39.3207 82.2105 38.7803 82.1187C39.2891 81.1962 38.8138 81.6043 39.5743 81.4198C40.0046 81.3171 40.3977 81.0964 40.7093 80.7824C41.2013 80.2792 41.5312 79.0379 41.0616 78.4396C43.4211 77.8805 52.9096 75.5322 55.23 75.7055C59.4402 76.013 90.0527 88.5991 97.2991 91.0257C97.3104 91.0294 97.3224 91.0308 97.3344 91.0298C97.3463 91.0288 97.3579 91.0255 97.3685 91.0201C97.3792 91.0146 97.3886 91.0071 97.3964 90.998C97.4041 90.9889 97.41 90.9784 97.4137 90.967C97.4174 90.9556 97.4187 90.9436 97.4178 90.9317C97.4168 90.9198 97.4135 90.9082 97.4081 90.8975C97.4026 90.8869 97.3951 90.8774 97.386 90.8697C97.3769 90.8619 97.3664 90.856 97.355 90.8524C95.4595 90.1926 91.2325 88.5096 86.1723 86.4855C86.4184 85.8929 87.0669 83.9806 87.5702 83.3209C87.777 83.0525 87.7659 83.0301 89.611 83.1364C94.4475 83.4159 98.7081 83.2873 103.349 81.8056C106.184 80.8942 107.576 78.7919 108.381 75.9795C108.543 76.0298 108.985 76.1752 109.141 76.2087C109.186 76.2195 109.233 76.2196 109.277 76.2089C109.322 76.1982 109.364 76.1771 109.399 76.1472C109.952 75.5825 109.857 70.992 109.857 69.8905ZM33.3791 31.4446C33.2278 31.4997 33.0644 31.5132 32.9061 31.4837C32.7477 31.4542 32.6002 31.3828 32.4789 31.2768C32.3582 31.1803 32.2637 31.0549 32.2041 30.9122C32.1445 30.7696 32.1217 30.6143 32.1378 30.4605C32.1304 30.4375 32.1324 30.4125 32.1434 30.391C32.1544 30.3696 32.1735 30.3533 32.1965 30.3459C32.2195 30.3385 32.2445 30.3405 32.266 30.3515C32.2875 30.3625 32.3037 30.3816 32.3111 30.4046C32.5872 30.8017 32.9771 31.1058 33.4294 31.2768C33.4438 31.2888 33.4544 31.3047 33.4598 31.3225C33.4652 31.3404 33.4652 31.3595 33.4599 31.3774C33.4545 31.3953 33.444 31.4112 33.4296 31.4232C33.4152 31.4351 33.3977 31.4426 33.3791 31.4446ZM28.1288 26.5466C28.1479 26.3823 28.2139 26.227 28.3189 26.0993C28.4419 25.9763 28.8166 26.0546 29.0794 25.8756C29.2759 25.7203 29.425 25.5131 29.5099 25.2774C29.823 24.6567 30.3206 25.1376 31.014 24.1144C31.1909 23.8266 31.3282 23.5163 31.4221 23.1918C31.8135 23.0073 32.3223 23.2757 32.8144 22.4649C32.9765 22.191 33.0827 21.9058 33.3735 21.8275C33.5916 22.0624 33.8096 22.9458 34.693 22.6047C34.693 22.9066 34.6259 24.4331 34.6092 24.5561C34.5367 24.9246 34.4974 25.2988 34.4918 25.6743C34.4918 26.7926 35.0062 27.4077 35.5765 28.5762C35.6659 28.7608 35.1963 28.9397 34.9614 29.0683C34.6301 28.9462 34.2873 28.8582 33.9382 28.8055C32.8535 28.5427 31.9868 29.1074 31.0531 29.3646C30.8948 29.3656 30.737 29.3468 30.5834 29.3087C30.2312 29.2752 29.8621 29.633 29.3645 29.7001C29.2348 29.7256 29.1004 29.7115 28.9787 29.6596C28.8571 29.6078 28.7539 29.5206 28.6824 29.4093C28.6221 29.2046 28.5791 28.9951 28.5538 28.7831C28.5035 28.5818 28.4419 28.3805 28.3972 28.1849C28.3078 27.7823 28.5705 27.6257 28.263 27.0666C28.0506 26.6864 28.0561 26.8541 28.1288 26.5466ZM28.3413 37.9529C28.7178 37.2384 29.0249 36.4895 29.2583 35.7164C29.5714 37.6621 29.7391 38.6462 29.8174 39.1382C29.4092 38.7972 29.3701 38.6686 28.3413 37.9305V37.9529ZM30.0187 40.2286C30.2927 41.906 30.2312 41.5257 30.2815 41.8724C30.1479 41.6208 29.9846 41.3861 29.795 41.1735C29.8576 40.8041 29.8857 40.4298 29.8789 40.0552L30.0187 40.2286ZM27.9946 41.235C27.6607 40.8878 27.3559 40.5138 27.0833 40.1167C27.3597 39.4702 27.6714 38.8393 28.017 38.2269C29.1912 39.1271 29.1017 39.1159 29.3925 39.4793C29.4351 39.9555 29.4351 40.4345 29.3925 40.9107L27.9946 41.235ZM28.0673 41.5984C28.7327 43.0801 29.0011 45.5124 29.1409 47.1338C28.4429 45.0915 27.5044 43.1395 26.3452 41.3189C26.5719 41.0091 26.7738 40.6819 26.9491 40.3404C27.1794 40.7693 27.4549 41.1723 27.771 41.5425C27.8114 41.5679 27.8569 41.5841 27.9042 41.5899C27.9516 41.5957 27.9996 41.591 28.045 41.5761L28.0673 41.5984ZM24.7461 29.633C24.7916 29.6471 24.8384 29.6565 24.8859 29.661C25.0161 29.6551 25.1409 29.6073 25.2416 29.5247C25.3424 29.442 25.4138 29.329 25.445 29.2025C25.5345 29.1466 25.6016 29.0851 25.596 28.9788C25.5904 28.8726 24.3882 27.2287 25.9203 26.3844C26.0554 26.3698 26.1912 26.4048 26.3023 26.4831C26.4135 26.5613 26.4923 26.6773 26.5241 26.8094C26.5965 27.1076 26.7493 27.3803 26.9658 27.5978C26.9828 27.9552 27.0295 28.3105 27.1056 28.6601C27.1504 28.867 26.9938 29.1354 26.9603 29.4205C26.882 29.9797 27.4243 30.5947 27.62 31.0979C27.8828 31.7745 27.7039 32.5013 28.3301 33.0996C28.9564 33.6979 28.8389 33.2059 29.057 34.5478C28.7961 35.6024 28.4367 36.6301 27.9835 37.6174C27.3516 36.7228 24.1534 31.5005 23.5104 30.3096C23.7508 30.1642 24.5001 29.7392 24.7237 29.6106L24.7461 29.633ZM23.0687 30.3766C23.4769 31.3272 27.5417 37.7684 27.5417 37.8243C27.3461 38.4449 26.2222 41.0169 25.691 41.2965C24.5224 40.4634 21.3186 31.7018 21.0894 30.9078C21.7202 30.6376 22.3838 30.4515 23.0631 30.3543L23.0687 30.3766ZM28.8389 55.0623C28.2239 54.8666 26.239 48.1291 24.4665 44.3997C23.4042 42.1632 21.3186 38.4673 19.0429 37.4832C16.5828 36.4265 12.0091 38.9593 11.5226 42.247C11.2256 44.4153 11.4011 46.6221 12.037 48.7162C14.6761 56.695 18.249 63.0579 25.8811 64.8807C26.06 64.5228 25.4282 64.8192 30.4492 64.9534C30.2031 65.1448 29.9413 65.315 29.6664 65.4622C28.7271 65.971 26.9435 65.5628 25.6239 65.4175L25.7917 65.054C17.9303 63.2983 14.2512 56.667 11.6177 48.8392C10.9526 46.682 10.7618 44.4065 11.0585 42.1687C11.5618 38.6127 16.2976 36.063 18.9199 36.9464C19.5886 37.1956 20.2007 37.5758 20.7203 38.0647C20.471 35.8242 20.4093 33.5668 20.5358 31.316C20.6386 31.2247 20.7489 31.1424 20.8657 31.07C21.3466 32.7474 24.0863 40.7653 25.4785 41.6543C25.5668 41.7065 25.6702 41.7272 25.7718 41.713C25.8734 41.6988 25.9671 41.6505 26.0377 41.5761C27.2957 43.7399 28.4699 45.9541 28.9396 48.2856C29.2053 49.5725 29.2732 50.8923 29.1409 52.1996C28.3469 48.9119 26.1495 44.1593 23.6502 41.8836C26.2054 46.2951 28.0673 53.3514 28.9004 54.7436C29.2337 54.8355 29.5741 54.8991 29.9181 54.9337C29.7727 51.5789 29.6609 44.5842 28.2407 41.5481C28.414 41.5481 29.6385 41.2853 29.6385 41.2853C29.8593 41.5505 30.0471 41.8415 30.1976 42.152C30.4269 42.5937 30.3486 42.2582 30.6952 44.6066C32.3726 55.4481 32.2776 55.3922 32.4957 55.5096C31.3998 55.3699 29.4708 55.2524 28.8389 55.0623ZM32.5516 52.8258C30.371 40.4466 30.3486 40.1 29.4316 34.9336C29.5043 34.6876 29.5602 34.4863 29.5994 34.3409C29.946 34.7826 31.8359 37.2036 32.0428 37.7348C31.7352 38.0088 30.6282 38.4785 30.9636 38.8531C31.1146 39.0264 32.3615 40.1055 32.7529 40.4969C32.9653 41.3971 32.6298 51.2602 32.5516 52.8258ZM18.8864 83.9862C19.0429 83.2761 20.0662 78.6577 20.3513 78.0091C20.5582 77.5283 27.3013 73.9498 28.3637 73.6814C29.8957 73.2789 38.2379 74.1064 38.8194 74.481C39.082 75.4563 39.2357 76.4576 39.2779 77.4668C38.3386 76.3485 31.0699 76.6448 30.9916 78.2216C30.99 78.2733 31.0009 78.3247 31.0233 78.3714C31.0457 78.4181 31.0789 78.4587 31.1202 78.49C31.1165 79.1658 31.1935 79.8396 31.3494 80.4972C27.0553 81.6546 22.7612 82.8624 18.8864 83.9862ZM40.2061 83.114C40.4912 84.0366 37.142 84.4335 36.1747 84.5454C35.0262 84.709 33.8568 84.6501 32.7305 84.372C32.2385 84.2378 31.3271 83.88 31.1537 83.4327C31.0699 83.2202 31.3438 83.0189 31.5451 82.9127C31.8002 82.7795 32.0706 82.6781 32.3503 82.6108C32.6549 83.0305 33.0634 83.3638 33.5356 83.5781C34.0948 83.8241 36.4823 83.6507 37.3098 83.4718C37.6732 83.3935 38.059 83.2873 38.607 82.4095C38.9424 82.4598 40.111 82.8065 40.2061 83.114ZM37.5334 82.9183C37.1141 83.1699 34.1507 83.3712 33.6978 83.1867C32.1993 82.5884 31.383 80.2512 31.3215 78.6018C32.5396 78.8698 33.7898 78.962 35.0341 78.8758C35.9679 78.7528 38.1764 78.3725 38.9872 77.9644C39.4736 79.7983 38.4448 82.3871 37.5334 82.9183ZM40.659 80.0332C40.5076 80.3326 40.295 80.5968 40.0349 80.8087C39.7749 81.0206 39.4731 81.1755 39.1493 81.2633C39.4418 80.4789 39.5804 79.6455 39.5575 78.8087C39.6016 78.7162 39.6657 78.6347 39.7451 78.57C39.8245 78.5052 39.9173 78.4589 40.0167 78.4343C40.1162 78.4097 40.2198 78.4075 40.3202 78.4277C40.4207 78.448 40.5153 78.4902 40.5975 78.5515C41.0168 78.8254 40.8323 79.5579 40.659 80.0332ZM98.2496 33.9663C102.029 36.0518 103.707 36.9241 104.914 38.7524C104.155 38.0992 103.188 37.7366 102.186 37.7292C98.6018 37.6062 96.8406 42.9124 95.9236 46.3455C94.4028 52.071 95.3365 59.3173 95.2526 60.3797C94.2853 61.2799 89.3314 63.8519 87.1173 65.054C87.4248 63.7568 88.5207 58.7526 89.2364 56.7789C90.1981 54.1286 92.9658 47.9558 93.1503 46.6138C93.2006 46.2169 93.1223 46.1665 91.9482 45.4061C92.4011 45.4061 93.6256 45.2831 94.0058 45.2104C94.1679 45.2104 94.2518 45.1377 94.3133 44.7967C94.5202 43.6113 94.9228 33.8433 94.9563 32.8033C94.9172 32.7809 97.7687 33.6923 98.2664 33.9663H98.2496ZM93.9387 32.6299C94.1933 32.6116 94.4491 32.64 94.6935 32.7138C94.4139 36.7675 94.1344 43.8965 93.8716 44.8078C93.5752 44.8638 92.5241 44.9364 92.1159 44.9644C91.2437 45.0147 91.2213 44.9644 91.1318 45.0874C91.0424 45.2104 91.1654 45.3782 91.3275 45.49C91.6127 45.6913 92.5632 46.2895 92.6974 46.4461C92.5684 47.1118 92.3697 47.7621 92.1047 48.3863C88.9456 56.7733 89.1357 54.1957 87.011 63.3934C87.153 58.9875 87.56 54.5941 88.2299 50.237C88.6773 47.8383 89.2196 45.585 91.0256 40.4522C91.7357 38.4673 93.2062 34.6652 93.2621 34.6876C93.5426 34.0193 93.7743 33.3317 93.9555 32.6299H93.9387ZM84.2266 66.9439C84.3328 67.3576 84.3328 67.3017 84.2992 67.3073L84.1259 67.2738C84.1259 67.2179 83.824 61.6042 83.9694 59.2838C84.2321 55.1742 84.5676 50.7179 84.8807 46.4237C85.0317 44.3438 85.602 39.8763 85.5852 40.044L86.1444 39.6303C86.3764 40.0932 86.6398 40.5397 86.9328 40.9666C87.0446 41.1176 87.1955 41.3077 87.3745 41.3245C87.2515 42.3365 85.3895 54.8219 84.8416 62.8007C84.5397 67.1452 84.8416 66.2226 84.3999 66.6196C84.3475 66.655 84.3053 66.7036 84.2778 66.7606C84.2503 66.8176 84.2384 66.8808 84.2433 66.9439H84.2266ZM87.5478 41.33C87.9727 41.33 88.4312 40.4354 88.9904 40.0552C89.2084 40.2845 89.8682 41.3804 90.3043 41.5257C88.4536 46.6027 86.4743 53.6813 86.4799 65.3671C86.0046 65.6243 85.3616 65.9934 84.8863 66.2673C85.1659 61.5091 87.19 45.8926 87.5646 41.33H87.5478ZM93.4187 33.8153C93.2398 34.3744 90.5839 40.7877 90.3994 41.084C90.1111 40.8013 89.8542 40.4883 89.6334 40.1503C89.1637 39.5185 89.0015 39.3116 88.202 40.2118C89.3873 37.9753 91.7022 35.7052 92.675 34.5757C93.6032 33.5134 93.4802 33.6028 93.4187 33.8153ZM80.8941 22.0735C81.3113 22.202 81.7574 22.202 82.1745 22.0735C82.4937 21.9317 82.846 21.8814 83.1922 21.9282C83.6808 22.1534 84.1832 22.3476 84.6962 22.5097C85.3308 22.5041 85.9642 22.4536 86.5917 22.3587C86.8792 22.493 87.1227 22.7062 87.294 22.9734C87.4652 23.2407 87.5571 23.551 87.559 23.8684C86.5169 24.0197 85.511 24.3588 84.59 24.8692C84.5334 24.6856 84.4213 24.5241 84.2691 24.4069C84.1169 24.2898 83.932 24.2227 83.7401 24.215C82.8233 24.1047 81.8972 24.0934 80.978 24.1815C80.8965 23.467 80.8684 22.7474 80.8941 22.0288V22.0735ZM80.6761 26.8429C80.5363 26.5969 80.2623 24.6903 80.5419 24.4834C80.5866 24.5393 80.3909 24.366 81.4533 24.3772C82.202 24.4008 82.9488 24.468 83.6898 24.5784C84.193 24.6679 84.2769 24.8972 84.2489 25.3836C84.2489 26.2838 84.2769 26.1943 84.2489 26.4739C84.2489 26.5522 84.2154 26.7591 84.1539 26.8038C83.0038 27.0119 81.8255 27.01 80.6761 26.7982V26.8429ZM85.8145 33.1444C84.2825 32.7082 82.879 32.6523 81.9341 30.7065C81.3247 29.4541 81.6601 29.0906 81.1066 28.9285C80.9013 28.904 80.699 28.8591 80.5027 28.7943C80.5027 28.4197 80.9724 27.6369 81.0619 27.2399C81.9904 27.3509 82.9289 27.3509 83.8575 27.2399C84.4167 27.156 84.713 27.061 84.6235 25.926V25.0593C85.5014 24.7909 87.3633 24.3492 87.5869 24.2877C87.5883 24.5919 87.6296 24.8945 87.7099 25.1879C87.7973 25.3724 87.9482 25.5192 88.1349 25.6017C88.1647 25.6149 88.1973 25.6211 88.2299 25.6198C88.2626 25.6184 88.2945 25.6096 88.3232 25.5939C88.3518 25.5782 88.3765 25.5561 88.3953 25.5293C88.414 25.5026 88.4263 25.4718 88.4312 25.4395C88.5598 24.9195 88.6605 24.4554 88.6996 24.2318C88.6996 24.3548 88.7499 23.8404 89.119 23.6391C89.6781 23.3484 90.5448 23.997 90.6063 24.9139C90.6398 25.3612 90.1925 26.172 89.857 27.1057C89.6557 27.6649 90.8746 27.9053 91.2996 28.1122C91.4561 28.4756 91.3611 28.8838 91.5736 29.1018C91.8925 29.2984 92.2421 29.4401 92.6079 29.5212C92.9936 30.7571 93.2742 32.0234 93.4466 33.3065C92.0264 34.7994 91.7077 35.1572 91.3275 35.543C89.8422 36.9544 88.5825 38.5856 87.5925 40.3795C87.1955 38.0479 86.4407 35.9903 86.3568 35.3138C86.2897 34.7882 86.4016 33.86 86.1556 33.3624C86.1183 33.3032 86.0684 33.2529 86.0094 33.2153C85.9504 33.1776 85.8839 33.1533 85.8145 33.1444ZM85.9766 35.0398C86.245 36.0351 86.9607 39.2668 87.1676 40.564C86.8265 40.0496 86.4072 39.1997 86.4072 39.1997C86.3926 39.1694 86.3715 39.1428 86.3452 39.1218C86.3189 39.1007 86.2883 39.0859 86.2555 39.0784C86.2227 39.0709 86.1887 39.0708 86.1559 39.0783C86.1231 39.0858 86.0924 39.1005 86.0661 39.1215L85.6579 39.4346C85.8145 37.9808 85.9711 36.4991 85.9934 35.0398H85.9766ZM85.8145 34.5422C85.7642 38.6574 84.9422 42.3253 84.6068 46.4237C83.4885 60.2008 83.4885 59.5242 83.6003 64.3998C82.9965 59.9939 82.1522 51.4224 81.6881 46.776C82.018 46.5244 83.6115 45.3111 83.7904 44.942C83.8743 44.7631 83.7904 44.5786 83.3879 44.5786C82.6881 44.6314 81.9853 44.6314 81.2855 44.5786C81.7105 42.8453 84.1427 36.5215 84.7913 34.8441C85.1212 34.7491 85.3951 34.654 85.8145 34.5422ZM59.8204 54.5815C60.6871 53.6701 71.5622 51.5454 72.1549 50.9695C72.988 50.1308 75.2804 44.9253 77.6176 40.9778C79.6025 37.623 80.6817 36.3817 84.5453 34.9559C83.6171 37.254 81.8055 41.7494 80.9892 44.3661C80.9389 44.5283 80.8662 44.7072 80.9892 44.8134C81.2967 45.1154 82.5827 44.9364 83.3208 44.9476C82.8008 45.4676 81.3694 46.5244 81.3694 46.5244C81.3418 46.5447 81.3201 46.572 81.3063 46.6034C81.2926 46.6348 81.2874 46.6692 81.2911 46.7033C81.5259 49.2977 82.9685 64.78 83.5947 67.0278L82.5883 66.7706C81.9378 66.4511 81.2313 66.2612 80.5083 66.2114C81.7831 59.8709 81.3247 58.0984 81.4812 54.643C81.4812 54.2851 79.9716 47.0947 79.9604 47.0388C79.9604 47.0151 79.951 46.9923 79.9342 46.9755C79.9174 46.9587 79.8946 46.9493 79.8709 46.9493C79.8472 46.9493 79.8244 46.9587 79.8077 46.9755C79.7909 46.9923 79.7815 47.0151 79.7815 47.0388C79.8765 49.4878 80.5698 51.8194 81.0451 54.492C79.2559 56.1694 77.3828 58.4898 74.3355 59.2446C72.4512 59.7199 63.6281 61.6433 62.4539 61.7272C61.4922 60.6536 59.6695 55.2972 59.8204 54.5815ZM58.7581 55.3251C58.7581 55.3251 59.429 55.163 59.4179 55.0567C59.94 57.0214 60.5976 58.9476 61.386 60.8214C60.8777 60.9786 60.358 61.0964 59.8316 61.1736C59.5129 61.1736 59.7366 61.4532 58.9594 59.6081C58.4805 58.461 58.0697 57.2866 57.7293 56.0911C57.6342 55.7053 57.4721 55.7445 58.7581 55.3251ZM52.2107 56.5049C52.6524 56.0184 52.9711 55.9458 57.3882 56.5049C57.7811 57.8381 58.2573 59.1453 58.814 60.4188C57.905 61.1274 56.8631 61.6465 55.75 61.9452C55.7164 61.7048 55.6381 61.7775 55.8282 61.7943C55.9888 61.7988 56.1483 61.7673 56.2951 61.7019C56.4418 61.6366 56.5721 61.5392 56.6762 61.4169C56.7802 61.2945 56.8556 61.1504 56.8965 60.9951C56.9375 60.8398 56.9431 60.6772 56.9129 60.5195C56.8682 59.9603 55.2691 58.7973 54.8162 58.4786C55.085 58.534 55.364 58.5126 55.6214 58.4171C55.6443 58.4097 55.6634 58.3935 55.6744 58.372C55.6855 58.3505 55.6875 58.3255 55.6801 58.3025C55.6727 58.2795 55.6564 58.2604 55.6349 58.2494C55.6134 58.2384 55.5884 58.2364 55.5654 58.2438C54.6261 58.4898 53.6756 57.3715 53.5526 57.338C53.122 57.2318 53.3904 58.2326 52.4343 58.8309C52.2945 58.9203 51.7578 58.7191 51.7242 58.4451C51.6538 58.1059 51.661 57.7553 51.7453 57.4193C51.8295 57.0833 51.9886 56.7707 52.2107 56.5049ZM45.9596 58.2662C46.6752 58.009 50.3208 56.8795 51.372 57.1479C51.2536 57.5945 51.227 58.0605 51.2937 58.5178C51.3292 58.663 51.3956 58.7989 51.4884 58.9161C51.5812 59.0334 51.6982 59.1292 51.8314 59.1971C51.9646 59.2651 52.1109 59.3035 52.2603 59.3097C52.4097 59.316 52.5587 59.29 52.6971 59.2335C53.0868 58.9736 53.3797 58.5923 53.5302 58.1487C54.0278 58.4507 56.4992 60.0889 56.4656 60.6704C56.4656 61.0618 56.2588 61.3917 55.8674 61.3582C55.537 61.2398 55.2246 61.076 54.9392 60.8717C54.6521 60.6424 54.3494 60.4331 54.0334 60.2455C53.9832 60.2194 53.9251 60.2128 53.8703 60.227C53.8155 60.2413 53.7679 60.2752 53.7366 60.3224C53.7054 60.3696 53.6927 60.4267 53.7011 60.4827C53.7094 60.5387 53.7382 60.5896 53.7818 60.6257C53.7818 60.6257 54.2012 60.9388 54.6652 61.2407C55.3642 61.7999 55.6046 62.3143 54.7379 62.5771C54.6023 62.6173 54.4597 62.6292 54.3193 62.6119C54.1788 62.5946 54.0434 62.5484 53.9216 62.4764C53.7791 62.1951 53.5901 61.9399 53.3625 61.7216C53.2609 61.4604 53.0788 61.2383 52.8426 61.0875C52.6063 60.9367 52.3282 60.865 52.0485 60.8829C51.7578 60.9164 51.7354 61.0618 51.7633 60.9276C51.8975 60.2623 51.0477 59.8597 50.455 59.9715C49.4989 60.1616 48.9677 61.4253 48.6546 62.3478C48.4645 62.7504 49.2137 62.3031 45.9428 63.4661C46.035 61.8422 46.035 60.2144 45.9428 58.5905C45.9148 58.2047 45.9036 58.2941 45.9596 58.2662ZM48.8111 62.4093C49.1186 61.7495 49.7952 60.5139 50.5165 60.402C50.796 60.3517 51.3608 60.5418 51.2993 60.827C51.1782 61.5841 50.829 62.2863 50.2984 62.8399C50.3655 62.9517 48.6154 62.9852 48.8111 62.4093ZM51.9758 61.3414C52.11 61.2072 52.8928 61.4812 52.9152 61.9005C52.9543 62.5994 52.2889 63.4325 51.713 63.8183C51.5285 63.9469 50.8016 63.3543 50.6339 63.1138C51.0333 62.4882 51.482 61.8955 51.9758 61.3414ZM52.9207 63.2033C52.9599 63.1474 53.519 61.9061 53.6141 62.9349C53.6532 63.3375 53.0549 63.55 52.6635 63.494C52.7545 63.4019 52.8404 63.3048 52.9207 63.2033ZM65.3558 70.472C63.0019 72.3004 62.6664 74.7046 63.0522 77.573C59.2725 76.2311 56.3874 75.3365 55.2635 75.2414C53.7424 75.2727 52.2286 75.4601 50.7457 75.8005C50.8967 74.2965 50.8296 69.0183 49.7617 67.9335C48.6937 66.8488 44.8189 65.3671 43.3596 64.808H43.6895C43.8181 64.7409 43.6056 64.1538 44.0921 64.1203C44.6791 64.0867 45.5011 64.3104 45.7694 64.0755C45.8496 63.9538 45.8959 63.8129 45.9036 63.6674C46.5187 63.4717 47.9668 63.03 48.6993 62.8399C48.9455 63.0353 49.2338 63.1709 49.5414 63.2359C49.849 63.3009 50.1675 63.2936 50.4717 63.2145C50.6395 63.5891 51.4223 64.411 51.9087 64.1426C52.0436 64.0647 52.1726 63.9769 52.2945 63.8798C52.6482 63.9779 53.0238 63.9622 53.3681 63.8351C53.5502 63.7855 53.7128 63.6811 53.8338 63.5361C53.9548 63.3911 54.0284 63.2125 54.0446 63.0244C54.3374 63.1084 54.6495 63.095 54.9339 62.9861C55.2184 62.8771 55.4597 62.6786 55.6214 62.4205C56.8472 62.145 57.9944 61.5944 58.9761 60.8102C59.0824 61.0394 59.183 61.2351 59.2669 61.3693C59.2947 61.4165 59.3337 61.456 59.3806 61.4843C59.4274 61.5126 59.4806 61.5288 59.5353 61.5315C60.0944 61.5874 61.414 60.9724 61.4699 60.9724C61.6614 61.3719 61.8998 61.7473 62.18 62.0906C62.2806 62.1913 62.4484 62.1633 62.6049 62.1465C64.2264 61.9508 72.2779 60.2175 74.4306 59.6808C77.2262 58.9818 79.049 57.0193 80.9668 55.1518C80.8606 58.3612 81.2799 59.9268 80.0107 66.2282C77.3715 66.5564 74.7566 67.0569 72.1828 67.7267C69.9295 68.3697 67.2457 69.0071 65.3558 70.4776V70.472ZM73.5136 81.5037L73.3179 81.4254C73.2731 78.585 73.9777 75.9683 76.0576 74.0281C76.2417 74.0749 76.4284 74.1104 76.6168 74.1343C74.4753 75.9683 73.631 78.6409 73.5136 81.5037ZM82.3423 72.183C80.6649 73.167 81.1569 73.6982 79.6193 73.8603C78.3875 73.945 77.1498 73.8489 75.9458 73.5752C74.9729 73.2621 75.4873 72.8875 76.5049 72.7756C76.6783 72.8036 78.0426 72.8148 78.6856 72.7756C78.7381 72.7672 78.7859 72.7404 78.8205 72.6999C78.855 72.6594 78.874 72.608 78.874 72.5548C78.874 72.5016 78.855 72.4501 78.8205 72.4096C78.7859 72.3691 78.7381 72.3423 78.6856 72.3339C77.9604 72.2715 77.2317 72.2603 76.5049 72.3004C76.0421 72.2937 75.5812 72.2393 75.1295 72.1382C75.0845 72.0649 75.0584 71.9816 75.0535 71.8957C75.0486 71.8099 75.0651 71.7241 75.1015 71.6462C75.6886 71.2939 78.4563 71.4281 78.9148 71.4113C78.9688 71.4028 79.0179 71.3754 79.0534 71.3338C79.0889 71.2923 79.1084 71.2395 79.1084 71.1849C79.1084 71.1303 79.0889 71.0775 79.0534 71.036C79.0179 70.9944 78.9688 70.967 78.9148 70.9585C77.9974 70.9779 77.0797 70.9293 76.1695 70.8131C75.7781 70.746 74.8667 70.5503 74.9338 70.1533C75.0568 69.4376 76.5273 70.0527 77.5617 69.98C78.2915 69.9691 79.0139 69.8329 79.6976 69.5774C79.7487 69.5618 79.7916 69.5266 79.8168 69.4794C79.842 69.4322 79.8474 69.3769 79.8318 69.3258C79.8162 69.2746 79.781 69.2317 79.7338 69.2066C79.6866 69.1814 79.6313 69.176 79.5802 69.1916C78.8805 69.3598 78.1708 69.483 77.4555 69.5606C77.4101 69.5512 77.3697 69.5256 77.3419 69.4885C77.3141 69.4515 77.3008 69.4055 77.3045 69.3593C77.3125 69.2548 77.339 69.1526 77.3828 69.0574C77.6711 68.6814 78.0583 68.3929 78.501 68.2243C80.089 67.5645 81.2967 68.2243 83.1139 68.3417C83.3419 69.3756 83.6313 70.3951 83.9805 71.3946C83.4233 71.6173 82.8832 71.8808 82.3646 72.183H82.3423ZM84.4782 71.5008C84.2825 70.841 83.5556 68.448 83.4829 67.8888C83.7715 67.7478 84.0754 67.6409 84.3887 67.5701C84.6459 68.5262 85.1212 70.1869 85.4287 71.115C85.1287 71.2651 84.8185 71.394 84.5005 71.5008H84.4782ZM86.0605 71.5008C85.7642 70.8299 84.8863 67.7043 84.685 66.9215C85.6468 66.1331 94.2797 61.8893 95.5658 60.5977C95.9683 60.1952 94.6096 52.6189 96.2032 46.3846C97.053 43.0298 98.7193 37.7572 102.158 37.8746C104.517 37.9529 105.865 39.7533 106.631 42.001C108.034 46.1386 107.475 51.8809 107.475 51.825C107.475 56.5161 105.798 63.5667 102.443 66.9215C99.9102 69.46 87.6373 71.786 86.0829 71.5176L86.0605 71.5008ZM109.114 75.7502C108.459 75.5769 105.457 74.4698 104.188 74.3636C97.5954 73.8044 98.0036 72.552 93.9275 70.7628C96.164 70.2036 101.135 68.9064 102.784 67.2738C106.268 63.8183 107.878 56.695 107.861 51.8753C107.991 50.1873 107.991 48.4919 107.861 46.8039C109.097 53.8155 109.857 73.6255 109.114 75.7502Z" fill="black"/>
<path fill-rule="evenodd" clip-rule="evenodd" d="M22.6605 37.9529L20.8265 38.1654C21.3856 38.6912 21.8948 39.2677 22.3474 39.8875L22.8562 38.2101C22.8717 38.18 22.8784 38.1462 22.8755 38.1125C22.8725 38.0788 22.8601 38.0466 22.8396 38.0197C22.8191 37.9928 22.7914 37.9722 22.7597 37.9604C22.728 37.9486 22.6936 37.946 22.6605 37.9529ZM75.6998 88.9793C75.2385 88.6873 74.7294 88.4791 74.1957 88.3643C75.4649 86.3011 75.2357 83.8912 74.9002 83.6787C74.5844 83.3569 74.164 83.1586 73.7148 83.1196C72.0374 82.7673 67.9725 82.7394 66.899 83.634C66.6642 83.8297 66.5244 84.1484 66.7536 84.3609C66.6445 85.6862 66.9222 87.0147 67.5532 88.1853C66.9941 88.2916 66.3455 88.504 66.133 89.0073C66.0964 89.1155 66.0864 89.231 66.1039 89.3439C66.1214 89.4568 66.1659 89.5638 66.2337 89.6558C66.6629 90.1881 67.2504 90.57 67.9111 90.7462C69.078 91.1013 70.3024 91.2285 71.5175 91.1208C72.6783 91.0735 73.8292 90.8857 74.9449 90.5616C76.1806 90.1032 76.1694 89.3483 75.6998 88.9793ZM66.9493 84.4615C68.1512 84.7898 69.3939 84.9442 70.6396 84.92C71.9978 84.8271 73.3391 84.5641 74.6318 84.1372C74.7438 84.9064 74.7026 85.6902 74.5107 86.4434C74.3188 87.1967 73.9799 87.9046 73.5135 88.5264C73.4008 88.7239 73.2382 88.8883 73.0419 89.0031C72.8457 89.1179 72.6227 89.1791 72.3953 89.1806C71.6125 89.2812 69.4766 89.3371 69.0405 89.1414C67.6259 88.4873 66.927 86.111 66.9493 84.4615ZM71.4951 90.612C70.3409 90.7213 69.1765 90.6035 68.0676 90.2653C67.5655 90.1285 67.1035 89.8735 66.7201 89.5217C66.6306 89.4266 66.4853 89.2365 66.53 89.1191C66.6754 88.7501 67.3855 88.5599 67.7769 88.4929C68.0571 88.9202 68.442 89.2686 68.8951 89.5049C69.4543 89.79 72.5518 89.7565 73.1277 89.4602C73.4867 89.241 73.7908 88.9427 74.0168 88.5879C74.3467 88.683 75.4985 89.0744 75.5767 89.3875C75.8284 90.3492 72.5015 90.5784 71.4951 90.6399V90.612Z" fill="black"/>
</svg>
