<svg width="113" height="113" viewBox="0 0 113 113" fill="none" xmlns="http://www.w3.org/2000/svg">
<path d="M102.163 29.09C102.102 28.6706 102.057 28.5308 101.531 28.2904C99.3341 27.379 91.1036 27.2504 88.7273 27.2225C88.7357 26.7657 88.63 26.3141 88.4198 25.9085C87.5308 25.0083 81.8444 25.1145 80.6367 24.8685C80.5248 24.8685 80.536 24.8685 80.5081 24.7679C80.2229 24.0689 80.1502 21.7262 79.6862 20.9099C78.8195 19.3778 75.5318 18.5 73.5021 19.9481C72.4551 19.6326 71.3361 19.6482 70.2983 19.9929C69.7388 20.2206 69.2358 20.5677 68.8243 21.01C68.4129 21.4524 68.1031 21.9792 67.9164 22.5537C67.6004 23.6104 67.4293 24.7051 67.4076 25.8078C66.3732 26.1489 60.9832 26.5515 60.3625 27.3566C60.2094 27.5916 60.1083 27.8566 60.0662 28.1338C56.2641 28.419 56.6723 28.4693 56.6275 28.3351C55.2074 23.9124 50.0913 19.4897 50.0913 19.4897C49.9739 19.3834 49.8565 19.4897 49.5993 19.6015C49.3068 18.7705 48.9322 17.9707 48.481 17.214C48.4917 17.0274 48.4285 16.8441 48.305 16.7039C48.1815 16.5636 48.0077 16.4777 47.8212 16.4648C48.3244 15.8665 47.4857 14.9104 46.3339 15.6987C46.1382 15.4136 45.9314 15.1396 45.7189 14.8377C45.8454 14.7569 45.9602 14.6591 46.06 14.5469C46.1774 14.3345 45.5008 14.5469 49.521 13.7921C50.2646 13.6411 53.5467 12.9758 53.994 12.8304C54.0447 12.8242 54.0918 12.8009 54.1274 12.7643C54.163 12.7277 54.185 12.68 54.1897 12.6291C54.9725 12.1986 54.1003 9.87259 53.7648 9.04507C55.157 7.69756 54.8831 6.24941 53.7033 5.83006C53.1596 5.66364 52.5827 5.63672 52.0259 5.75178C51.497 4.83821 50.7782 4.04883 49.918 3.43698C49.2861 3.09032 48.7997 3.30279 48.6543 3.63267C48.5089 3.96256 43.1301 10.3423 43.063 10.3814C42.0454 10.6721 40.5413 11.3096 40.0437 12.2433C38.8919 14.4295 41.1284 17.1133 43.309 16.2635L43.706 16.1349C43.9408 16.4759 44.2316 16.8617 44.4888 17.2028C44.4399 17.2923 44.3987 17.3858 44.3658 17.4824C44.3043 17.6837 43.8961 18.2204 44.1645 18.7572C44.4329 19.294 46.2892 20.6023 46.8483 20.9546L46.7309 21.0161C46.6921 21.0322 46.661 21.0628 46.6444 21.1014C46.6277 21.14 46.6266 21.1836 46.6414 21.223C46.9657 22.1735 48.7158 26.7248 47.8659 26.5459C46.6247 26.2775 43.555 25.0754 39.82 23.8565C37.768 23.1855 36.3926 22.5369 34.5642 22.112C34.43 21.2341 34.279 20.9546 34.1448 20.2445C34.7484 19.9872 35.2594 19.5523 35.6098 18.9976C35.8111 18.6621 35.5762 18.7963 36.0012 18.8802C36.1391 18.9213 36.2876 18.9076 36.4157 18.842C36.5438 18.7764 36.6416 18.6639 36.6889 18.5279C37.1921 18.7013 37.673 18.4161 37.5611 17.829C37.919 17.829 38.5788 17.829 38.6794 17.2084C38.8304 16.4592 37.9022 16.1964 37.6674 15.9168C37.2444 15.3914 36.9394 14.7812 36.7728 14.1276C36.2136 12.3384 35.7775 9.31905 34.7934 8.17283C34.4854 7.83211 34.1066 7.5628 33.6836 7.38373C33.2606 7.20467 32.8036 7.12017 32.3446 7.13614C31.8855 7.15212 31.4355 7.26819 31.026 7.47623C30.6165 7.68426 30.2573 7.97926 29.9737 8.34057C29.6179 8.13901 29.2434 7.97236 28.8555 7.84294C28.3801 7.76537 27.8938 7.78692 27.4271 7.90624C26.9605 8.02555 26.5235 8.24005 26.1437 8.53626C24.3097 10.0962 25.2546 12.7801 24.019 15.6596C23.6332 16.5542 21.7098 18.4832 23.1188 19.2157C23.2642 19.2605 23.4191 19.265 23.5668 19.2285C23.7145 19.1921 23.8496 19.1161 23.9575 19.0088C23.9712 19.1534 24.013 19.2939 24.0805 19.4226C24.2481 19.6233 24.4653 19.7768 24.7104 19.868C24.9555 19.9592 25.2202 19.9849 25.4783 19.9426C25.6384 19.8896 25.7826 19.7973 25.8977 19.6742C25.9352 19.7903 26.0027 19.8944 26.0933 19.9761C26.5518 20.3395 27.111 20.306 27.5918 19.5791C27.6666 19.6847 27.7701 19.7666 27.89 19.8152C28.0099 19.8637 28.1412 19.8769 28.2684 19.8531V21.7038C27.9608 21.743 27.6533 21.7821 27.3458 21.838C27.32 21.8329 27.2934 21.8329 27.2675 21.838C23.8936 22.3333 20.7315 23.7824 18.1537 26.0147C15.5722 28.2103 13.4562 30.9004 11.9305 33.9264C10.583 36.8898 10.7284 37.9857 11.1925 40.0769C11.4782 41.2795 12.0261 42.4041 12.7972 43.3702C13.6471 44.522 14.961 45.9086 16.8621 47.9607C17.315 48.4471 17.8853 49.0789 18.3661 49.5598C18.1089 50.734 16.2918 57.8293 16.398 59.2663C16.398 59.4117 16.5322 59.585 16.8229 59.708C17.7753 59.9924 18.7596 60.1558 19.7528 60.1945C19.4229 72.0648 20.2672 87.6367 21.3128 99.1939C21.2701 99.2086 21.2317 99.2335 21.2009 99.2666C21.0219 99.7597 21.0219 100.3 21.2009 100.793C21.2736 100.944 21.4134 100.933 21.7601 100.961C21.7601 101.676 21.8216 102.504 21.8663 103.225C21.7409 103.323 21.6283 103.435 21.5308 103.561C21.4917 103.65 21.4861 103.622 21.7377 105.087C21.565 105.562 21.4322 106.05 21.3407 106.547C21.2886 106.917 21.2569 107.291 21.2457 107.665C21.2444 107.865 21.3071 108.061 21.4246 108.224C22.1325 108.777 22.9256 109.211 23.7729 109.51C24.7192 109.359 25.6129 108.975 26.3729 108.392C26.4673 108.307 26.5395 108.201 26.5834 108.082C26.6273 107.963 26.6414 107.835 26.6245 107.71C26.5906 106.794 26.4345 105.888 26.1604 105.014C26.2722 104.536 26.3322 104.047 26.3394 103.555C26.3058 103.449 26.2443 103.399 25.9424 103.203C26.0151 102.51 26.0822 101.727 26.1325 101.039H26.8314C27.2731 101.011 27.1389 100.24 27.1613 99.6245C27.1613 99.4064 26.9488 99.3281 26.7475 99.2834L32.0481 65.1204C32.4339 67.2451 33.3453 72.5569 33.3397 74.7263C33.3397 75.2519 31.9922 92.585 31.6623 97.1251C31.6092 97.1373 31.5607 97.1645 31.5225 97.2034C31.3241 97.6814 31.283 98.2101 31.4051 98.7131C31.4666 98.8808 31.6232 98.8808 31.858 98.9199C31.7741 99.7027 31.6958 100.541 31.6343 101.352C31.4107 101.352 31.3436 101.408 31.2709 101.615C31.0528 102.241 30.8292 104.461 31.2206 105.076C31.4834 105.484 40.3456 107.178 42.694 106.144C43.1636 105.931 43.1413 105.451 43.063 104.942C42.9288 104.025 39.1491 102.767 38.0308 102.219C37.9246 102.163 37.9469 102.18 37.9022 102.096C37.3431 101.078 37.1865 100.648 37.0244 100.569C36.8627 100.523 36.6926 100.513 36.5268 100.541C36.4876 100.156 36.4485 99.781 36.4037 99.3561C36.4969 99.3723 36.5928 99.3586 36.6777 99.3169C36.9125 99.1492 36.8902 98.4447 36.9461 97.975C36.9528 97.9111 36.9348 97.8471 36.8958 97.7961C36.5938 97.3544 36.3366 99.2107 39.3504 88.6822C39.2497 89.8564 38.4222 99.2498 38.713 99.7139C38.7968 99.8313 38.959 99.8369 39.1603 99.8537C42.8673 100.228 89.9518 101.967 93.9049 102.012C94.5814 102.012 96.7005 102.057 96.9018 101.922C98.7805 100.782 102.974 34.9664 102.163 29.09ZM60.48 27.4629C61.0391 26.708 66.9939 26.3726 67.5698 26.0427C67.6014 26.0284 67.6286 26.0058 67.6483 25.9772C67.668 25.9486 67.6795 25.9152 67.6816 25.8805C67.7088 24.7935 67.8857 23.7154 68.2072 22.6767C68.3859 22.1477 68.6789 21.6645 69.0655 21.2615C69.452 20.8586 69.9226 20.5457 70.4437 20.3451C71.9589 19.786 74.5365 20.278 75.2802 21.6199C75.7443 22.4419 75.7555 25.2879 76.2307 25.6848C76.706 26.0818 83.3037 25.9476 84.0586 26.7192C84.1043 26.811 84.1364 26.9089 84.1536 27.01C84.3257 28.2295 84.3125 29.4679 84.1145 30.6835C82.5881 31.2929 63.8627 32.1316 60.9329 31.8017C60.5191 31.757 60.4856 31.8017 60.3737 31.388C60.0998 30.5213 59.9879 28.1227 60.48 27.4629ZM46.0655 17.1581C46.1047 16.8338 45.9593 16.9847 46.2724 17.0518C46.228 17.1303 46.2032 17.2183 46.2001 17.3084C46.197 17.3985 46.2158 17.488 46.2548 17.5693C46.2938 17.6506 46.3518 17.7212 46.424 17.7752C46.4962 17.8292 46.5804 17.8649 46.6694 17.8794C46.6167 17.9533 46.5848 18.04 46.5769 18.1305C46.5691 18.2209 46.5856 18.3118 46.6247 18.3938C46.7589 18.6733 46.949 18.7125 47.2341 18.746C47.1232 18.872 46.967 18.9492 46.7995 18.9607C46.632 18.9722 46.4667 18.9172 46.3395 18.8075C46.2892 18.7572 46.0432 18.4553 45.7189 18.0527C45.8836 17.7759 46.0007 17.4735 46.0655 17.1581ZM48.0616 16.9456C48.1007 16.9675 48.1349 16.9972 48.1621 17.0327C48.1894 17.0683 48.2091 17.109 48.2201 17.1524C48.2311 17.1958 48.2331 17.241 48.226 17.2853C48.219 17.3295 48.203 17.3718 48.1791 17.4097C47.9375 17.3842 47.6934 17.4013 47.4578 17.46C47.2062 17.5159 46.7645 17.5551 46.6582 17.3873C46.5017 17.1189 47.6479 16.6604 48.0616 16.9456ZM46.8819 15.8665C47.4913 15.6149 47.838 16.0398 47.7318 16.2691C47.3406 16.5221 46.8836 16.6544 46.4178 16.6493C46.3924 16.6488 46.3674 16.6431 46.3443 16.6325C46.3212 16.6219 46.3005 16.6067 46.2836 16.5878C46.1606 16.4703 46.2445 16.3473 46.3507 16.2355C46.504 16.0813 46.6839 15.9563 46.8819 15.8665ZM45.9034 14.1499C45.2157 13.1491 43.5439 10.9238 43.2755 10.4932L48.604 4.34277C48.7941 6.02017 50.6281 9.09539 51.5394 10.4932C51.5694 10.531 51.6105 10.5584 51.6569 10.5715C52.1648 11.3319 52.7916 12.0059 53.5132 12.5676C53.0771 12.6235 47.4801 13.8368 45.9034 14.1499ZM53.5635 6.22146C53.7047 6.27058 53.8343 6.34838 53.944 6.44998C54.0538 6.55157 54.1413 6.67475 54.2012 6.81179C54.2611 6.94884 54.2919 7.09678 54.2919 7.24632C54.2918 7.39587 54.2609 7.54379 54.2009 7.68079C53.899 8.5139 53.0826 9.14012 52.3446 9.66571C52.1433 9.81667 51.9476 9.95646 51.7855 10.0627C51.0315 8.98988 50.3479 7.86926 49.739 6.7079C50.8797 6.36683 52.5235 5.79651 53.5635 6.22146ZM43.186 15.8833C41.3688 16.5934 39.4957 14.2841 40.3904 12.4222C40.7873 11.5835 42.2299 10.8902 43.1077 10.5771C43.337 10.9964 45.2716 13.8983 45.6015 14.4183C44.8492 14.9889 44.0397 15.4798 43.186 15.8833ZM44.0191 15.9448C44.5056 15.6708 45.0815 15.3018 45.5344 14.9831C45.7189 15.2794 45.909 15.6037 46.0935 15.9C45.9955 15.976 45.9177 16.0748 45.867 16.188C45.8163 16.3011 45.7942 16.4249 45.8027 16.5486C45.65 16.4683 45.4763 16.4371 45.3051 16.4592C45.0793 16.5048 44.8794 16.6348 44.746 16.8226L44.0191 15.9448ZM45.9425 19.9034C44.718 18.8355 44.6062 18.9193 44.4888 18.595C44.3714 18.2708 44.7069 17.7955 44.7795 17.5942C44.9025 17.2364 45.2939 16.694 45.6182 16.9232C45.8363 17.0742 45.5288 17.9465 45.4505 18.1254C45.4201 18.1725 45.3957 18.2232 45.3778 18.2763C45.5848 18.5656 45.8069 18.8437 46.0432 19.1094C46.1742 19.2247 46.3303 19.3077 46.499 19.3518C46.6678 19.3959 46.8446 19.3999 47.0152 19.3635C47.1858 19.3271 47.3455 19.2513 47.4816 19.1421C47.6177 19.033 47.7263 18.8935 47.7989 18.7348L48.0672 18.6789C48.0894 18.6736 48.1089 18.6606 48.1223 18.6421C48.1356 18.6236 48.1419 18.601 48.1399 18.5783C48.1399 18.4329 47.8156 18.5783 47.3795 18.4217C47.1894 18.3658 47.0664 18.349 47.0217 18.2316C46.921 17.9912 47.8044 17.7955 48.0784 17.8011C48.1517 17.7924 48.226 17.7983 48.297 17.8184C48.3681 17.8386 48.4344 17.8726 48.4922 17.9185C48.5481 17.9688 49.3476 19.4505 49.4539 19.6965L47.0608 20.8148C46.7421 20.6079 46.3227 20.2501 45.9425 19.9034ZM47.8044 26.8143C47.861 26.8322 47.9205 26.8386 47.9795 26.8331C48.0386 26.8275 48.0959 26.8102 48.1481 26.782C48.2003 26.7538 48.2462 26.7154 48.2833 26.6691C48.3203 26.6228 48.3476 26.5695 48.3636 26.5124C48.6431 25.6737 47.5528 22.8109 47.0217 21.2397L49.9459 19.8643C50.6225 20.4737 54.9781 24.4715 56.225 28.4637C56.9407 30.7003 56.6667 32.9368 54.1226 34.5527C52.1676 35.7292 49.8951 36.2685 47.6199 36.0959C45.3424 35.9517 43.1093 35.3987 41.0278 34.4632C41.1116 33.2611 41.0837 30.5828 41.2906 29.1347C41.2925 29.1116 41.2859 29.0886 41.2721 29.07C41.2583 29.0514 41.2382 29.0385 41.2156 29.0337C41.1929 29.0289 41.1693 29.0326 41.1491 29.0439C41.129 29.0553 41.1136 29.0737 41.106 29.0955C40.9454 29.5823 40.8257 30.0817 40.7482 30.5884C40.5975 31.9084 40.5788 33.2401 40.6923 34.5639C40.6476 34.6533 40.5805 34.1836 41.4136 42.0842C41.4136 42.1792 44.5335 55.8109 44.4496 57.6504C43.3314 58.2543 36.907 58.9252 35.5035 58.9532C35.0618 57.8741 32.6352 50.5662 32.255 49.4032C34.4915 38.3156 32.652 45.657 35.8893 38.9195C37.0231 36.55 38.0345 34.1239 38.9198 31.6508C39.1345 31.081 39.3065 30.496 39.4342 29.9007C39.479 29.8 39.5405 29.6938 39.4342 29.5764L38.0029 27.6474C39.5237 23.8062 39.4734 24.013 39.4678 23.918C43.0742 25.1537 46.5408 26.5291 47.8044 26.8143ZM41.162 35.0391C42.3741 35.5532 43.6347 35.9447 44.9249 36.2077C44.4496 39.4339 43.9017 43.7951 43.3258 48.7323C41.4247 39.6967 42.1125 44.5108 41.162 35.0391ZM23.9463 93.5299C23.7785 97.8408 23.9463 97.6507 23.7618 97.6563C23.7375 97.6563 23.7141 97.6471 23.6965 97.6305C23.6788 97.6138 23.6681 97.5911 23.6667 97.5668C23.4487 92.68 24.0357 83.4096 25.2043 60.3734H25.4168C25.0422 69.012 23.9854 92.4732 23.9463 93.5299ZM27.6869 28.0556C26.3044 26.4925 25.0321 24.8354 23.8792 23.0961C24.9442 22.6958 26.0479 22.4073 27.1725 22.235C27.5415 23.0849 28.6598 26.2104 28.9729 27.0939L27.6981 28.0723L27.6869 28.0556ZM28.3522 22.1455C29.4258 23.2638 31.6623 25.3158 33.2223 25.4612C33.0601 25.724 32.0369 27.3846 31.8356 27.625C31.2374 27.4293 28.7548 24.4547 28.3187 23.9403C28.1454 23.4763 27.8546 22.6823 27.6645 22.2294L28.3522 22.1455ZM26.3394 30.8233V30.7673C26.3394 30.745 27.4912 28.7321 27.603 28.5308C27.6533 28.4358 27.48 28.5923 29.0567 27.3007C31.707 34.8155 31.6176 35.5647 32.9707 40.5969C25.523 29.6435 26.3729 30.7673 26.3394 30.8233ZM32.3612 27.2784C32.4706 27.6776 32.6186 28.0652 32.8029 28.4358C32.9148 28.5588 32.5905 29.7497 32.0593 35.1006C31.1004 31.6351 29.9676 28.2201 28.6654 24.8685C29.1127 25.3549 31.1032 27.5412 31.7126 27.776C31.7506 27.8004 31.7951 27.8124 31.8402 27.8104C31.8853 27.8084 31.9286 27.7925 31.9642 27.7648C32.0257 27.6977 32.1711 27.502 32.35 27.2504L32.3612 27.2784ZM33.7758 41.7375C34.5195 38.3827 36.1186 30.3536 36.2919 26.9485L37.6338 27.8319C39.2329 30.0684 39.0876 29.8112 39.0764 29.9119C38.8695 31.1028 35.196 39.8309 33.7646 41.7096L33.7758 41.7375ZM37.5556 27.4685L36.3199 26.708C36.4634 25.539 36.5455 24.3632 36.5659 23.1855C37.3431 23.4483 38.1482 23.7447 38.9031 24.0745C38.7689 24.3932 37.8072 26.8255 37.5556 27.4685ZM35.3638 30.6723C35.1965 29.8757 34.976 29.0911 34.704 28.3239C34.7319 28.2009 34.8494 27.6586 34.922 27.3175C35.0511 27.4622 35.1873 27.6002 35.3302 27.7313C35.47 27.8543 35.5818 27.927 35.7328 27.8543C35.6154 28.7936 35.4979 29.6882 35.3638 30.6723ZM36.0906 23.0234C36.0848 24.332 35.9989 25.6391 35.8334 26.9373C35.7328 27.1386 35.6489 27.3007 35.5874 27.407C34.933 26.7815 34.3133 26.1208 33.7311 25.4276C34.7208 25.1537 34.7319 23.6161 34.6313 22.5872C35.1401 22.7103 35.6265 22.8444 36.0906 23.001V23.0234ZM29.258 19.1094C29.2916 19.0144 29.258 19.0424 29.3419 19.0591C29.6819 19.095 30.0242 19.0174 30.3155 18.8384C30.6068 18.6594 30.8307 18.389 30.9522 18.0695C31.0782 17.5192 31.0413 16.9441 30.846 16.4144C30.7622 16.1642 30.6968 15.9082 30.6503 15.6484C30.3707 14.5302 29.6886 13.4398 30.0017 12.3439C30.0772 12.0458 30.2662 11.789 30.5283 11.6281C30.7905 11.4673 31.1051 11.4152 31.4051 11.4829C31.5576 11.5379 31.7053 11.6052 31.8468 11.6842C32.3221 11.9302 32.6631 12.1091 32.8868 11.8855C32.8868 11.8855 33.5633 11.2201 34.2064 11.3934C34.4636 11.4941 35.0674 12.7745 35.2016 13.4734C35.1008 13.3389 34.9531 13.2471 34.7878 13.2162C34.3294 13.1603 34.0107 13.5349 34.0778 13.6467C34.4519 13.7305 34.8429 13.6953 35.196 13.5461C35.3877 14.5992 35.4758 15.6685 35.4588 16.7387C35.1995 16.5703 34.9143 16.4457 34.6145 16.3697C34.3877 16.3621 34.1621 16.406 33.9547 16.4983C33.732 16.4422 33.5021 16.4196 33.2726 16.4312C32.6296 16.5542 32.0984 17.2531 31.7741 17.5495C31.6288 17.6837 31.5225 18.0527 31.7741 18.2092C32.0257 18.3658 32.3892 18.0806 32.501 17.952C32.9621 17.489 33.4636 17.068 33.9995 16.694C34.4619 16.9996 34.9397 17.2814 35.4309 17.5383C35.3672 17.8111 35.3464 18.0922 35.3693 18.3714C35.2385 18.7002 35.0393 18.9973 34.7848 19.2432C34.5303 19.489 34.2264 19.6779 33.8932 19.7972C33.8493 19.811 33.8087 19.8336 33.7738 19.8635C33.7388 19.8935 33.7103 19.9302 33.6899 19.9715C33.6696 20.0128 33.6577 20.0577 33.6552 20.1037C33.6527 20.1496 33.6595 20.1956 33.6752 20.2389C33.787 20.9378 34.3238 22.3971 34.1616 23.8677C34.1113 24.3261 33.9659 24.9021 33.5074 24.9524C32.1655 25.1033 29.6718 22.7941 28.7269 21.8212V19.7021C28.978 19.567 29.168 19.3409 29.258 19.0703V19.1094ZM28.6094 14.3456C28.7033 14.9383 28.7649 15.5356 28.794 16.1349C28.4752 16.2467 28.0503 15.8273 27.972 15.531C27.7931 14.916 27.9497 14.5246 28.6094 14.3456ZM16.8677 59.188C16.8006 57.8517 18.4556 51.2875 18.7743 49.9232C18.9298 50.0903 19.1209 50.2202 19.3334 50.3034C19.3818 50.3088 19.4307 50.2995 19.4736 50.2765C19.5166 50.2535 19.5515 50.2181 19.5739 50.1748C19.613 50.1189 19.7472 49.9064 19.9429 49.6157C20.1052 49.9586 20.3331 50.2663 20.6139 50.5215C19.7807 51.2036 19.6018 51.1533 19.6745 51.2875C19.6853 51.3079 19.7035 51.3233 19.7254 51.3306C19.7472 51.3379 19.7711 51.3365 19.7919 51.3266C22.1738 50.2755 23.3927 48.3688 23.5325 45.7018C23.5343 45.6797 23.5278 45.6578 23.5144 45.6403C23.501 45.6227 23.4815 45.6108 23.4598 45.6067C23.2697 45.6067 23.4039 46.0652 22.7833 47.6196C22.5037 47.3412 22.16 47.1358 21.7824 47.0213C21.8571 46.9236 21.9393 46.832 22.0285 46.7473C22.1571 46.7138 22.2297 46.5852 22.1571 46.4007C21.9725 45.9142 20.8263 43.9293 20.5356 43.4317C20.5387 43.4001 20.5387 43.3682 20.5356 43.3366C20.5691 42.5594 20.7536 41.184 20.927 39.7023C21.2614 36.7922 21.4164 33.8642 21.391 30.9351C21.3501 30.0844 21.1921 29.2433 20.9214 28.4358C20.9162 28.412 20.9018 28.3913 20.8813 28.3782C20.8609 28.3651 20.8361 28.3607 20.8123 28.3659C20.7886 28.3711 20.7679 28.3855 20.7548 28.4059C20.7417 28.4264 20.7373 28.4512 20.7425 28.4749C20.9158 29.705 21.0052 34.5806 21.0052 34.6925C20.4853 35.4808 18.0195 38.8244 18.0307 39.3444C18.0893 39.6573 18.187 39.9617 18.3214 40.2502C18.3214 40.3956 17.9803 39.4898 20.2448 43.6945C20.5412 44.2536 21.4526 45.931 21.693 46.4566C20.8227 47.5251 20.0179 48.6455 19.2831 49.8114C18.0251 48.8049 14.2509 44.5555 13.1774 43.1018C12.4438 42.1877 11.9224 41.1221 11.651 39.9818C11.3542 39.02 11.2665 38.0058 11.3938 37.0073C11.9529 33.4009 15.5984 28.7712 18.4388 26.3838C20.0043 25.0406 21.7799 23.9639 23.6947 23.1967C24.0134 23.7558 24.6787 24.7175 25.3721 25.7128C27.4129 28.5588 27.4241 28.1282 27.3011 28.3407C26.9991 28.8998 26.0822 30.3648 25.9368 30.6947C25.8585 30.8792 25.2099 30.0517 33.0937 41.8046C32.8421 43.1689 30.08 58.4723 29.5041 59.7528C28.5312 60.1386 17.835 60.01 16.8677 59.188ZM20.7313 50.4208C20.5037 50.0962 20.3335 49.735 20.228 49.3529C20.5282 48.7802 20.882 48.2372 21.2848 47.7314C21.5252 47.4127 21.5141 47.3792 21.6762 47.3903C22.04 47.4417 22.3866 47.5777 22.6882 47.7873C22.2633 48.8209 21.5844 49.7305 20.7145 50.432L20.7313 50.4208ZM20.1162 42.7048C19.7752 42.1457 18.5227 39.7806 18.4892 39.35C18.724 38.7238 19.9708 36.8339 21.0667 35.0223C20.9381 36.9569 20.3343 40.2558 20.0994 42.716L20.1162 42.7048ZM26.1325 107.71C26.1324 107.793 26.1211 107.875 26.0989 107.956C26.089 107.976 26.0735 107.994 26.0542 108.006C25.4792 108.446 24.8295 108.78 24.1364 108.99C23.7562 109.107 23.7506 109.119 22.9175 108.733C22.464 108.534 22.0249 108.305 21.6035 108.045C21.4693 107.922 21.4525 107.519 21.4525 107.34C21.8387 107.693 22.2647 107.999 22.7218 108.252C23.5157 108.682 24.0581 108.761 25.2714 108.196C25.5729 108.061 25.8611 107.898 26.1325 107.71ZM25.6404 101.084C25.5901 101.704 25.5342 102.342 25.4783 102.912C25.0069 102.622 24.5155 102.366 24.0078 102.146C23.5269 102.023 22.6659 102.616 22.2633 102.912C22.2186 102.476 22.1738 101.928 22.09 100.978C22.7218 101.011 23.471 101.028 24.1028 101.033C25.8138 101.05 25.6516 101 25.6404 101.084ZM26.6525 100.525C26.5966 100.525 21.6706 100.609 21.4693 100.592C21.3086 100.199 21.2677 99.7668 21.3519 99.3505C21.4287 99.3297 21.5074 99.3166 21.5867 99.3113C23.2891 99.3215 24.9889 99.4448 26.6748 99.6804C26.6889 99.975 26.6815 100.27 26.6525 100.564V100.525ZM35.8782 99.3057C35.9173 99.7307 35.9508 100.172 35.99 100.603C35.7992 100.635 35.6119 100.686 35.4309 100.754C35.0003 100.983 35.3693 101.777 35.2296 101.956C34.704 101.895 32.9203 101.397 31.9754 101.335C32.009 100.581 32.0537 99.658 32.0928 98.9479C33.1999 99.1045 34.8158 99.2331 35.8782 99.3057ZM42.5877 105.149C42.5877 105.372 42.6325 105.613 42.4647 105.708C40.5134 106.574 32.2103 105.233 31.3995 104.903C31.3222 104.726 31.2767 104.536 31.2653 104.344C34.3517 104.864 40.0996 106.328 42.5877 105.149ZM36.3366 98.8864C36.2807 98.8864 31.7853 98.6012 31.6288 98.5733C31.5669 98.2869 31.5406 97.9939 31.5505 97.701C31.5443 97.5722 31.5693 97.4437 31.6232 97.3264C32.2997 97.209 35.744 97.8856 36.4261 98.0477C36.412 98.3287 36.3821 98.6087 36.3366 98.8864ZM39.0988 74.8437C38.7465 76.5211 35.2631 93.6585 34.6928 96.2697C34.6852 96.2915 34.6699 96.3099 34.6497 96.3213C34.6296 96.3326 34.6059 96.3363 34.5833 96.3315C34.5606 96.3267 34.5405 96.3138 34.5267 96.2952C34.5129 96.2766 34.5063 96.2536 34.5083 96.2305C34.9668 93.8654 38.2601 76.5491 38.6403 74.7431C38.8192 73.8988 37.3151 60.7368 37.1362 59.3278H37.4325C38.2489 64.606 39.2721 73.9883 39.0988 74.8437ZM96.5104 101.587C94.1453 101.772 39.5293 99.4791 39.0373 99.4176C38.9198 97.9471 39.7921 87.9945 39.9207 86.524C40.8153 83.3537 42.5206 77.1306 43.0239 73.8596C43.46 71.0025 42.694 64.606 42.3138 61.7209C42.4256 60.6809 42.5318 59.6465 42.6437 58.6177C43.2884 58.5218 43.9229 58.3664 44.5391 58.1536C44.7069 58.0754 44.8746 57.9691 44.8914 57.7902C44.9976 56.7949 43.7731 51.0135 43.5886 50.0127C44.2036 44.5667 44.8243 39.7638 45.2995 36.2636C48.4139 36.8227 51.6625 36.6271 54.3575 34.9161C56.9518 33.2723 57.3712 31.0022 56.7506 28.7321C57.785 28.6315 58.8753 28.5364 60.0047 28.447C59.8817 29.3472 59.9041 31.5222 60.3793 31.8968C61.2795 32.6125 82.5154 31.7682 84.271 31.0693C84.3575 31.0393 84.4307 30.9799 84.4779 30.9015C84.7463 30.3871 84.7239 28.2345 84.6457 27.4293C86.3846 27.4293 100.86 27.3175 101.895 28.7097C103.063 30.2865 98.3388 101.408 96.5104 101.559V101.587Z" fill="black"/>
<path d="M57.5781 60.5076C57.5166 60.1218 57.388 60.0491 57.1755 59.9876C56.0572 59.6633 49.5657 59.2943 49.0178 59.6633C48.4698 60.0323 47.3907 64.3209 47.7709 65.6516C47.8069 65.7285 47.859 65.7967 47.9236 65.8517C47.9882 65.9066 48.0639 65.9471 48.1455 65.9703C49.4707 66.5295 55.8727 67.0494 56.566 66.6581C57.2594 66.2667 57.7402 61.5644 57.5781 60.5076ZM56.566 65.8473C56.5195 66.0013 56.4518 66.1481 56.3648 66.2834C55.9174 66.535 48.9507 66.1604 48.1231 65.5398C47.7485 64.2929 48.6823 60.1162 49.124 59.8087C49.5657 59.5012 56.4374 60.0883 57.1531 60.407C57.3824 61.3407 56.9071 64.7794 56.566 65.8473ZM55.1962 70.6838C54.637 70.2533 47.3683 69.9066 46.8092 70.2645C46.2501 70.6223 45.1821 74.8885 45.5623 76.2528C45.5992 76.329 45.6516 76.3967 45.7161 76.4516C45.7806 76.5065 45.8558 76.5473 45.9369 76.5715C47.2733 77.1306 52.7975 77.5499 54.0891 77.3375C54.1735 77.3343 54.2561 77.312 54.3307 77.2723C54.4052 77.2326 54.4698 77.1765 54.5196 77.1082C55.0732 76.3422 55.7833 71.1591 55.1962 70.6838ZM54.1562 76.879C53.6977 77.1362 46.77 76.7616 45.9146 76.1353C45.54 74.8885 46.4737 70.7118 46.9154 70.4042C47.3571 70.0967 54.2904 70.7062 54.939 71.0025C55.2185 72.0481 54.5252 76.6721 54.1562 76.879ZM53.899 81.0277C53.3399 80.6028 46.0711 80.2505 45.512 80.6084C44.9529 80.9662 43.8849 85.2268 44.2651 86.5855C44.3011 86.6624 44.3532 86.7306 44.4178 86.7856C44.4825 86.8406 44.5581 86.881 44.6398 86.9042C45.9761 87.4634 51.5003 87.8827 52.7919 87.6702C52.8768 87.6664 52.9597 87.6432 53.0343 87.6025C53.1089 87.5618 53.1732 87.5047 53.2224 87.4354C53.7704 86.6973 54.4917 81.5086 53.899 81.0277ZM53.0547 86.7924C53.0547 86.8595 52.9149 87.195 52.8534 87.2229C52.3949 87.4801 45.4673 87.0999 44.6118 86.4793C44.2428 85.238 45.1709 81.0613 45.6126 80.7482C46.0544 80.4351 52.9205 81.0277 53.6418 81.3465C53.8654 82.2522 53.4349 85.6126 53.0547 86.7924Z" fill="black"/>
<path d="M54.7767 61.5253C53.7759 62.4758 52.8869 63.5773 52.2383 63.9911C52.009 64.142 51.8916 64.1923 51.6791 64.0805C51.3329 63.8619 51.039 63.5698 50.8181 63.225C50.8053 63.209 50.7874 63.1978 50.7674 63.1934C50.7474 63.189 50.7264 63.1916 50.7081 63.2008C50.6897 63.2099 50.6751 63.2251 50.6666 63.2438C50.6582 63.2625 50.6564 63.2835 50.6615 63.3033C50.8492 63.7509 51.1568 64.1379 51.5505 64.4216C51.6934 64.4956 51.8549 64.526 52.0149 64.5092C52.1749 64.4923 52.3265 64.4288 52.4507 64.3265C52.907 64.0101 53.3188 63.634 53.6752 63.2083C54.1103 62.709 54.5155 62.1843 54.8886 61.6371C54.9007 61.6313 54.9112 61.6227 54.9193 61.612C54.9274 61.6013 54.9328 61.5888 54.9351 61.5756C54.9374 61.5624 54.9364 61.5488 54.9323 61.536C54.9283 61.5232 54.9212 61.5116 54.9117 61.5021C54.9022 61.4926 54.8906 61.4856 54.8778 61.4815C54.865 61.4774 54.8515 61.4765 54.8382 61.4788C54.825 61.481 54.8125 61.4864 54.8018 61.4945C54.7911 61.5026 54.7825 61.5132 54.7767 61.5253ZM52.5793 72.1208C51.3716 73.2671 50.2254 74.7208 49.6942 74.7432C49.529 74.7114 49.376 74.6339 49.2525 74.5195C48.6598 74.0331 48.6598 73.7032 48.5145 73.787C48.5038 73.7918 48.4943 73.7987 48.4865 73.8073C48.4786 73.8159 48.4727 73.8261 48.469 73.8371C48.4653 73.8482 48.464 73.8599 48.4651 73.8715C48.4662 73.883 48.4697 73.8943 48.4753 73.9045C48.6822 74.3853 49.1742 75.129 49.6998 75.1401C50.3708 75.1401 51.4667 73.8989 51.8637 73.4012C52.2606 72.9036 52.5514 72.4451 52.7079 72.2327C52.7228 72.2156 52.7302 72.1934 52.7287 72.1708C52.7271 72.1483 52.7166 72.1273 52.6996 72.1124C52.6825 72.0976 52.6603 72.0902 52.6377 72.0917C52.6152 72.0933 52.5942 72.1038 52.5793 72.1208ZM51.2766 82.4648C50.0912 83.583 48.917 85.0647 48.397 85.0815C48.2286 85.0545 48.0724 84.9765 47.9497 84.8579C47.3515 84.3714 47.3906 84.0471 47.2117 84.1254C47.2013 84.1312 47.1922 84.139 47.1849 84.1484C47.1776 84.1577 47.1723 84.1684 47.1691 84.1799C47.166 84.1913 47.1652 84.2033 47.1668 84.215C47.1683 84.2268 47.1722 84.2382 47.1781 84.2484C47.3794 84.7293 47.8715 85.4729 48.4026 85.4841C49.0736 85.4841 50.1695 84.2428 50.5609 83.7452C50.9523 83.2476 51.2542 82.7891 51.4052 82.5766C51.4834 82.4927 51.3548 82.3809 51.2766 82.4648ZM94.2794 63.4767C92.4734 63.3704 63.091 62.1347 61.2291 62.0565C61.2099 62.0614 61.1928 62.0726 61.1806 62.0883C61.1685 62.104 61.1619 62.1233 61.1619 62.1431C61.1619 62.163 61.1685 62.1823 61.1806 62.198C61.1928 62.2137 61.2099 62.2249 61.2291 62.2298C63.1246 62.3528 93.0493 63.6164 94.285 63.65C94.3041 63.6445 94.3209 63.6327 94.3326 63.6166C94.3443 63.6006 94.3503 63.581 94.3496 63.5611C94.349 63.5413 94.3417 63.5222 94.329 63.5069C94.3163 63.4916 94.2988 63.4809 94.2794 63.4767ZM92.082 74.0778C90.276 73.9716 60.8936 72.7359 59.0317 72.652C59.0185 72.6486 59.0047 72.6483 58.9914 72.6511C58.978 72.6539 58.9655 72.6596 58.9547 72.668C58.9439 72.6764 58.9352 72.6871 58.9292 72.6993C58.9232 72.7116 58.9201 72.725 58.9201 72.7387C58.9201 72.7523 58.9232 72.7658 58.9292 72.778C58.9352 72.7903 58.9439 72.801 58.9547 72.8093C58.9655 72.8177 58.978 72.8235 58.9914 72.8263C59.0047 72.829 59.0185 72.8287 59.0317 72.8253C60.9272 72.9483 90.8464 74.212 92.082 74.2511C92.1013 74.2462 92.1183 74.235 92.1305 74.2193C92.1427 74.2036 92.1493 74.1843 92.1493 74.1645C92.1493 74.1446 92.1427 74.1253 92.1305 74.1096C92.1183 74.0939 92.1013 74.0827 92.082 74.0778ZM90.7793 84.4217C88.9733 84.3155 59.5909 83.0798 57.729 82.9959C57.7097 83.0009 57.6927 83.0121 57.6805 83.0278C57.6683 83.0434 57.6617 83.0628 57.6617 83.0826C57.6617 83.1025 57.6683 83.1218 57.6805 83.1375C57.6927 83.1532 57.7097 83.1644 57.729 83.1693C59.6188 83.2923 89.5436 84.5559 90.7793 84.5895C90.8015 84.5895 90.8228 84.5806 90.8386 84.5649C90.8543 84.5492 90.8631 84.5278 90.8631 84.5056C90.8631 84.4834 90.8543 84.462 90.8386 84.4463C90.8228 84.4306 90.8015 84.4217 90.7793 84.4217ZM94.0278 67.4353C92.2218 67.3347 62.8394 66.0934 60.9831 66.0151C60.9699 66.0117 60.9561 66.0114 60.9427 66.0142C60.9294 66.017 60.9168 66.0227 60.9061 66.0311C60.8953 66.0395 60.8866 66.0502 60.8806 66.0624C60.8746 66.0747 60.8715 66.0881 60.8715 66.1018C60.8715 66.1154 60.8746 66.1289 60.8806 66.1411C60.8866 66.1534 60.8953 66.1641 60.9061 66.1724C60.9168 66.1808 60.9294 66.1866 60.9427 66.1894C60.9561 66.1921 60.9699 66.1918 60.9831 66.1884C62.873 66.3114 92.7977 67.5751 94.0334 67.6086C94.0525 67.6031 94.0692 67.5914 94.0809 67.5753C94.0927 67.5592 94.0987 67.5397 94.098 67.5198C94.0974 67.4999 94.0901 67.4808 94.0774 67.4655C94.0647 67.4502 94.0472 67.4396 94.0278 67.4353ZM91.8416 78.0365C90.0356 77.9302 60.6532 76.6945 58.7913 76.6163C58.6795 76.6163 58.6683 76.7784 58.7913 76.7896C60.6868 76.9126 90.6115 78.1706 91.8472 78.2098C91.8663 78.2043 91.883 78.1925 91.8947 78.1765C91.9064 78.1604 91.9124 78.1408 91.9118 78.1209C91.9112 78.1011 91.9039 78.0819 91.8912 78.0667C91.8785 78.0513 91.861 78.0407 91.8416 78.0365ZM90.5388 88.3804C88.7384 88.2742 59.356 87.0385 57.4941 86.9546C57.4704 86.9546 57.4476 86.964 57.4309 86.9808C57.4141 86.9976 57.4047 87.0203 57.4047 87.0441C57.4047 87.0678 57.4141 87.0905 57.4309 87.1073C57.4476 87.1241 57.4704 87.1335 57.4941 87.1335C59.3896 87.2509 89.3087 88.5146 90.5444 88.5537C90.5635 88.5482 90.5803 88.5365 90.592 88.5204C90.6037 88.5043 90.6097 88.4848 90.609 88.4649C90.6084 88.445 90.6011 88.4259 90.5884 88.4106C90.5757 88.3953 90.5583 88.3847 90.5388 88.3804ZM62.4928 55.2406C62.6661 55.14 62.7444 54.8213 62.7947 54.6088C63.5327 51.6175 64.3826 37.9187 64.2037 37.1471C64.1884 37.0956 64.1594 37.0492 64.1198 37.0129C63.8011 36.7222 62.0399 36.6886 61.4304 36.6719C58.2378 36.5936 50.8069 36.834 50.723 36.9123C50.5162 37.1639 47.4353 53.5744 47.8155 54.6871C48.1958 55.7998 61.1732 55.9843 62.4928 55.2406ZM48.179 54.5361C48.1749 54.4766 48.1749 54.4168 48.179 54.3572C48.1837 54.3751 48.1942 54.3909 48.2089 54.4022C48.2236 54.4135 48.2415 54.4196 48.2601 54.4196C48.2786 54.4196 48.2965 54.4135 48.3112 54.4022C48.3259 54.3909 48.3364 54.3751 48.3411 54.3572C48.5793 53.4394 49.0491 52.5981 49.7054 51.9138C50.4564 51.0745 51.4235 50.4575 52.5011 50.1302C52.9886 50.7624 53.5192 51.3602 54.089 51.9194C54.2176 52.0144 54.3686 51.9194 54.5251 51.8467C55.0843 53.2613 54.8159 51.4329 54.5251 55.2015C53.692 55.1735 48.9003 54.989 48.179 54.5361ZM54.4916 48.0055C54.1796 47.8816 53.8995 47.6892 53.6721 47.4424C53.4446 47.1955 53.2756 46.9007 53.1776 46.5797C53.1181 46.3356 53.0807 46.0868 53.0658 45.836C53.2598 46.0925 53.5303 46.2806 53.8383 46.3731C54.1463 46.4656 54.4757 46.4578 54.7789 46.3507C55.0821 46.2436 55.3434 46.0428 55.5249 45.7774C55.7065 45.512 55.7989 45.1957 55.7888 44.8743H55.8894C55.7383 45.3837 55.6722 45.9146 55.6937 46.4455C55.6961 46.5239 55.7172 46.6006 55.7552 46.6691C55.923 46.8816 56.0907 46.876 56.3759 46.8313C56.3983 46.8301 56.4195 46.8211 56.4359 46.8057C56.4523 46.7904 56.4627 46.7697 56.4653 46.7474C56.4653 46.6188 56.2417 46.6747 56.0851 46.5182C56.0851 46.3281 56.1466 45.6851 56.1522 45.5229C56.1522 44.8184 56.0124 44.8967 56.2137 44.8967C56.175 45.1699 56.2131 45.4484 56.3237 45.7012C56.4343 45.954 56.6131 46.1711 56.8399 46.3281C57.1115 46.5047 57.4307 46.594 57.7545 46.584C58.0783 46.574 58.3913 46.4652 58.6515 46.2722C58.6515 46.3448 58.5956 46.4287 58.5509 46.5405C58.3985 47.0438 58.0961 47.4885 57.6842 47.8154C57.03 48.2738 56.6107 48.1117 56.6554 48.4192C56.7225 48.8609 56.8735 49.1741 56.9685 49.8282C56.4778 50.1237 56.0054 50.4486 55.5539 50.8011C55.1222 50.4011 54.6666 50.0277 54.1896 49.6829C54.4133 48.5143 54.8047 48.1452 54.4916 48.0055ZM56.2976 44.5333C56.2801 44.5809 56.2652 44.6294 56.2528 44.6786C56.1809 44.6303 56.0963 44.6045 56.0096 44.6045C55.923 44.6045 55.8383 44.6303 55.7664 44.6786C55.7551 44.5156 55.7082 44.357 55.629 44.214C55.5498 44.071 55.4402 43.9472 55.3079 43.8511C54.9573 43.6272 54.5497 43.5088 54.1337 43.51C53.8377 43.4966 53.5478 43.5965 53.323 43.7896C53.4808 43.0661 53.9062 42.429 54.5139 42.006C55.5651 41.3518 57.1978 41.4804 57.8687 42.5204C58.0198 42.7304 58.1333 42.9649 58.2042 43.2137C58.2411 43.404 58.2935 43.591 58.3608 43.7728C58.2399 43.7222 58.1114 43.692 57.9806 43.6834C57.2537 43.6331 56.4765 43.8064 56.2976 44.5444V44.5333ZM54.8886 45.9255C54.7519 45.9951 54.6028 46.0367 54.4499 46.0479C54.297 46.0591 54.1434 46.0396 53.9981 45.9907C53.8528 45.9417 53.7187 45.8642 53.6038 45.7628C53.4888 45.6614 53.3952 45.538 53.3286 45.3999C53.1385 44.6842 53.4348 43.8791 54.1393 43.8735C56.2696 43.8008 55.6322 45.6515 54.8886 45.9255ZM57.9862 44.0412C58.6907 44.1195 58.8919 44.9582 58.6347 45.6515C58.5529 45.7805 58.4464 45.8919 58.3212 45.9795C58.1961 46.0671 58.0549 46.129 57.9057 46.1617C57.7566 46.1945 57.6024 46.1974 57.4521 46.1703C57.3018 46.1432 57.1584 46.0866 57.03 46.0038C56.3088 45.6571 55.8279 43.7393 57.975 44.0412H57.9862ZM59.1044 44.6004L59.2442 44.5221C59.5629 44.7625 59.6188 45.1707 59.0765 45.6403C59.1687 45.318 59.1784 44.9777 59.1044 44.6507V44.6004ZM52.4899 44.332C52.5348 44.2882 52.595 44.2638 52.6576 44.2638C52.7203 44.2638 52.7805 44.2882 52.8254 44.332C52.852 44.3558 52.8851 44.3713 52.9204 44.3767C52.8252 44.6824 52.806 45.0068 52.8645 45.3216C52.4675 45.0812 52.1488 44.6954 52.4899 44.3543V44.332ZM56.6834 51.6007C56.4161 51.4191 56.1603 51.2211 55.9174 51.008L57.55 49.6829C57.6786 49.7779 58.0309 50.0407 58.221 50.2029C57.2928 51.036 56.9014 51.4329 56.6834 51.6175V51.6007ZM55.1625 50.9633C54.8715 51.1535 54.571 51.3289 54.2623 51.4889C54.1058 51.3267 52.7806 49.8674 52.7806 49.8674C52.9987 49.722 53.4125 49.4872 53.5578 49.4089L55.1625 50.9633ZM56.566 55.2742C56.5637 54.3788 56.453 53.487 56.2361 52.6183C56.6051 51.897 56.4038 52.0592 56.6163 52.1095C56.6444 52.1221 56.6749 52.1287 56.7057 52.1287C56.7366 52.1287 56.7671 52.1221 56.7952 52.1095C57.3511 51.6386 57.8707 51.1265 58.3496 50.5775C60.2562 51.4218 61.7603 52.814 62.2635 54.8716C62.1126 55.2742 57.0636 55.2742 56.566 55.2742ZM50.8516 37.0521C52.2551 37.0129 62.5431 36.7445 63.8515 37.2701C63.9801 38.3884 62.9904 52.2269 62.3809 54.4858C61.8609 52.5288 60.4296 51.131 58.5844 50.2644C58.6683 50.0798 58.467 49.968 57.5948 49.4872C57.5814 49.4787 57.5659 49.4742 57.55 49.4742C57.5342 49.4742 57.5187 49.4787 57.5053 49.4872L57.2872 49.6214C57.2034 49.0622 57.1195 48.9001 57.0468 48.5031C57.3852 48.4192 57.7025 48.2661 57.9787 48.0534C58.2549 47.8408 58.484 47.5731 58.6515 47.2674C58.8571 46.904 59.0132 46.5148 59.1156 46.11C59.8145 45.6292 60.2003 44.9582 59.6747 44.3096C59.8257 44.0748 59.9319 43.8847 59.8201 43.6331C59.8675 43.5613 59.8977 43.4796 59.9084 43.3942C59.9191 43.3089 59.9099 43.2222 59.8816 43.141C59.8548 43.0298 59.8135 42.9227 59.7586 42.8223C59.8155 42.7296 59.8527 42.6263 59.868 42.5186C59.8833 42.411 59.8763 42.3013 59.8475 42.1965C59.8186 42.0916 59.7686 41.9938 59.7004 41.9091C59.6322 41.8244 59.5474 41.7546 59.4511 41.7041C59.4737 41.5678 59.4621 41.428 59.4173 41.2973C59.3725 41.1667 59.2959 41.0492 59.1945 40.9555C59.093 40.8618 58.9698 40.7947 58.836 40.7605C58.7022 40.7262 58.5619 40.7257 58.4279 40.7591C58.3799 40.6321 58.2964 40.5215 58.1874 40.4404C58.0974 40.3646 57.9932 40.3073 57.881 40.2718C57.7687 40.2363 57.6506 40.2233 57.5333 40.2335C57.1083 40.2671 57.2872 40.4013 57.1978 40.1832C57.1516 40.0783 57.071 39.9923 56.9694 39.9395C56.8677 39.8866 56.751 39.87 56.6386 39.8925C56.4593 39.9053 56.288 39.9715 56.1466 40.0826C55.9791 39.9439 55.7685 39.868 55.5511 39.868C55.3337 39.868 55.1231 39.9439 54.9557 40.0826C54.8718 40.172 54.9165 40.1497 54.8438 40.1217C54.6605 40.0744 54.4681 40.0744 54.2847 40.1217C54.1748 40.1458 54.0721 40.1952 53.9847 40.2661C53.8973 40.337 53.8277 40.4273 53.7815 40.5299C53.6909 40.5133 53.5981 40.5133 53.5075 40.5299C53.3255 40.5955 53.1619 40.7039 53.0306 40.846C52.8992 40.9881 52.8039 41.1596 52.7527 41.3462C52.7498 41.389 52.7498 41.432 52.7527 41.4748C52.6478 41.5354 52.547 41.6026 52.4507 41.6761C52.3456 41.8025 52.2765 41.9549 52.2509 42.1173C52.2253 42.2798 52.2441 42.4461 52.3054 42.5987C52.1759 42.6905 52.0797 42.822 52.0314 42.9733C52.0023 43.1644 52.0335 43.3599 52.1209 43.5324C52.1538 43.5791 52.1893 43.6238 52.2271 43.6666L52.1712 43.7337C52.1347 43.831 52.1347 43.9383 52.1712 44.0356C52.0777 44.1449 52.0125 44.2755 51.9813 44.4159C51.9501 44.5563 51.9538 44.7022 51.9923 44.8408C52.1195 45.1852 52.3499 45.482 52.652 45.6907C52.652 45.8193 52.652 46.0373 52.7024 46.2498C52.7561 46.6906 52.9221 47.1103 53.1845 47.4686C53.4468 47.8269 53.7968 48.1119 54.2008 48.2962C54.0706 48.6622 53.9623 49.0356 53.8765 49.4145C53.6361 49.2356 53.6026 49.1908 53.5411 49.2244C52.652 49.5766 52.4228 49.6829 52.4228 49.7835C50.1136 50.5272 48.5089 52.6295 48.1958 54.2566C48.2125 51.7908 50.5944 37.8964 50.8516 37.0521ZM96.9688 46.4063C96.8906 46.3225 69.1241 46.1491 69.0682 46.1547C69.0444 46.1547 69.0217 46.1642 69.0049 46.1809C68.9881 46.1977 68.9787 46.2205 68.9787 46.2442C68.9787 46.1883 68.7662 48.7659 69.0514 48.9336C69.8062 49.3586 94.3745 49.7667 96.6054 49.5487C96.7024 49.5499 96.797 49.5184 96.8738 49.4592C97.282 49.0399 97.2708 46.6635 96.9688 46.4063ZM69.0849 46.3281H69.1185C69.1185 46.3281 69.0905 46.356 69.0849 46.3281ZM96.5942 49.1237C95.3194 49.2859 70.5219 49.0678 69.1968 48.7603C69.1183 47.9514 69.1183 47.1369 69.1968 46.3281L96.734 46.7921C96.8389 47.5711 96.7914 48.3629 96.5942 49.1237ZM97.0359 41.7152C96.9577 41.6314 69.1912 41.458 69.1353 41.4636C69.112 41.465 69.09 41.4748 69.0735 41.4913C69.057 41.5078 69.0471 41.5298 69.0458 41.5531C69.0458 41.4972 68.8277 44.0748 69.1185 44.2425C69.918 44.701 94.559 45.0644 96.6725 44.8576C96.7695 44.8588 96.8641 44.8273 96.9409 44.7681C97.3491 44.3487 97.3323 41.9724 97.0359 41.7152ZM69.152 41.637H69.1856C69.2191 41.637 69.1576 41.6705 69.152 41.637ZM96.6613 44.4326C95.4592 44.5948 70.6002 44.3767 69.2639 44.0636C69.1883 43.2565 69.1883 42.4441 69.2639 41.637L96.8011 42.101C96.9031 42.8782 96.8557 43.6677 96.6613 44.427V44.4326ZM97.0974 37.2086C97.0533 37.1731 96.9975 37.1551 96.9409 37.1583C96.9409 37.1583 69.4651 36.9458 69.2974 36.9514C69.2135 36.9514 69.0961 36.9514 69.1017 37.0465C69.1017 36.9906 68.8892 39.5682 69.1744 39.7359C69.8677 40.1273 96.5719 40.692 96.9968 40.2615C97.4217 39.831 97.3826 37.4658 97.0974 37.2086ZM69.2079 37.1304H69.2415C69.275 37.1304 69.2135 37.1583 69.2079 37.1304ZM96.7172 39.926C95.4368 40.0882 70.5219 39.8589 69.3198 39.557C69.233 38.7509 69.2217 37.9385 69.2862 37.1304L96.8235 37.5944C96.9384 38.3693 96.9024 39.1592 96.7172 39.9204V39.926ZM73.8599 54.3293C74.1898 54.1447 74.2234 53.854 74.0668 53.6695C73.6237 53.3852 73.127 53.1949 72.6075 53.1103C72.5581 52.6116 72.381 52.134 72.0931 51.7237C71.5339 51.2205 71.1705 52.3723 70.9748 53.0936C70.5051 53.1327 69.4707 53.2669 69.3925 53.731C69.3925 53.8931 69.5043 53.9938 69.6497 54.0665C69.9793 54.1988 70.3174 54.309 70.6617 54.3963C70.2144 54.866 69.2079 55.9563 69.8342 56.0737C70.192 56.152 71.1425 55.5817 71.5954 55.4811C72.0148 55.7159 72.9206 56.4484 73.2728 56.2023C73.6251 55.9563 73.1219 55.1624 72.8367 54.62C73.1853 54.5517 73.5275 54.4544 73.8599 54.3293ZM79.1996 54.5809C79.5351 54.4019 79.5687 54.1112 79.4065 53.9267C78.9678 53.6379 78.4719 53.4472 77.9528 53.3675C77.9034 52.8671 77.7263 52.3877 77.4384 51.9753C76.8792 51.4777 76.5158 52.6295 76.3201 53.3508C75.8504 53.3899 74.816 53.5185 74.7378 53.9882C74.7098 54.1447 74.8496 54.251 74.995 54.3237C75.3238 54.4529 75.6599 54.563 76.0014 54.6535C75.5597 55.1176 74.5476 56.2135 75.1739 56.3309C75.5317 56.4092 76.5102 55.8333 76.9351 55.7718C77.3769 56.0178 78.2659 56.7335 78.6125 56.4875C78.9592 56.2415 78.4616 55.4475 78.182 54.9052C78.5311 54.8311 78.872 54.7225 79.1996 54.5809ZM84.763 54.7877C85.0929 54.6032 85.1264 54.3125 84.9699 54.1336C84.5284 53.8462 84.031 53.6556 83.5105 53.5744C83.4637 53.0751 83.2863 52.5968 82.9961 52.1878C82.437 51.6846 82.0736 52.8364 81.8779 53.5576C81.4082 53.6024 80.3738 53.731 80.3011 54.1951C80.3011 54.3572 80.4129 54.4634 80.5583 54.5305C80.8858 54.665 81.2221 54.7771 81.5648 54.866C81.123 55.3301 80.111 56.426 80.7372 56.5434C81.0951 56.6217 82.0456 56.0514 82.4985 55.9507C82.9179 56.1912 83.8237 56.918 84.1759 56.672C84.5282 56.426 84.0193 55.632 83.7398 55.0897C84.089 55.0192 84.4314 54.9182 84.763 54.7877ZM90.5668 55.0058C90.9023 54.8269 90.9302 54.5305 90.7737 54.3516C90.3322 54.0643 89.8348 53.8737 89.3143 53.7925C89.2659 53.2944 89.0908 52.817 88.8055 52.4058C88.2464 51.9026 87.8774 53.06 87.6873 53.7757C87.2176 53.8204 86.1832 53.949 86.1105 54.4187C86.0825 54.5753 86.2223 54.6815 86.3677 54.7542C86.6966 54.8834 87.0326 54.9935 87.3741 55.0841C86.9324 55.5482 85.9204 56.6441 86.5466 56.7615C86.8989 56.8398 87.8774 56.2638 88.3079 56.1688C88.7328 56.4092 89.6274 57.1361 89.9853 56.8901C90.3431 56.6441 89.8343 55.8501 89.5547 55.3077C89.9007 55.2387 90.2395 55.1376 90.5668 55.0058ZM89.0459 55.2015C89.0459 55.4084 89.5492 56.0905 89.6722 56.5322C89.5715 56.4875 89.4317 56.398 89.3199 56.3365C88.4253 55.8613 88.4589 55.7047 88.0898 55.8333C87.8047 55.934 86.8597 56.4428 86.6081 56.4875C86.6642 56.3045 86.7512 56.1324 86.8653 55.9787C87.4804 55.0673 87.7823 55.0561 87.3965 54.8604C87.0284 54.752 86.6752 54.598 86.3453 54.4019C86.446 54.1447 87.4636 54.072 87.8103 54.0665C88.006 54.0665 87.9389 53.9155 88.252 53.1774C88.3222 52.9945 88.4162 52.8215 88.5315 52.663C88.6374 52.8171 88.7133 52.9897 88.7552 53.1718C88.9621 53.8819 88.8503 54.0776 89.0851 54.128C89.5426 54.2186 89.9863 54.369 90.4046 54.5753C90.317 54.6391 90.2185 54.6865 90.1139 54.7151C89.4206 54.9219 89.0292 54.8996 89.0459 55.2015ZM96.3091 54.2789C95.9218 54.109 95.5192 53.9761 95.1069 53.8819C95.0517 53.5298 94.958 53.1848 94.8274 52.8531C94.5925 52.294 94.2123 52.1878 93.9104 52.691C93.7183 53.0653 93.5665 53.4589 93.4575 53.8652C93.0772 53.8918 92.7017 53.9651 92.3392 54.0832C92.0205 54.2062 91.7465 54.4634 91.9199 54.6871C92.2864 54.9302 92.6996 55.094 93.1332 55.1679C92.7999 55.5127 92.4986 55.8869 92.233 56.2862C91.9758 56.7335 92.1323 57.0075 92.6971 56.8453C93.1276 56.7112 93.7427 56.3813 94.0669 56.2862C94.3465 56.4428 95.1852 57.0746 95.5822 57.0578C95.6225 57.0593 95.6627 57.0526 95.7004 57.0381C95.738 57.0235 95.7723 57.0014 95.801 56.9731C95.8298 56.9449 95.8525 56.911 95.8678 56.8737C95.883 56.8363 95.8905 56.7962 95.8897 56.7559C95.7853 56.2822 95.5958 55.8313 95.3306 55.4251C95.6797 55.3568 96.0221 55.2576 96.3538 55.1288C96.7116 54.9275 96.8235 54.5417 96.3091 54.2789ZM94.9671 55.0953C94.5534 55.291 95.2635 55.9396 95.4592 56.6496C95.202 56.5322 94.2738 55.9563 94.2067 55.9284C93.9048 55.7998 93.2003 56.3254 92.5685 56.5434L92.4007 56.6049C92.6299 56.0924 92.9458 55.6234 93.3345 55.2183C93.5525 54.9778 92.3616 54.8045 92.1324 54.5417C92.1771 54.4243 92.479 54.3404 92.5964 54.3125C93.4128 54.1224 93.6867 54.3125 93.7594 54.0776C93.8908 53.6306 94.0787 53.2022 94.3186 52.8028C94.5342 53.2004 94.6656 53.6382 94.7044 54.0888C94.7379 54.3237 94.9336 54.2286 95.7276 54.5082C95.892 54.5576 96.0498 54.6271 96.1972 54.7151C96.0015 54.8604 95.2467 54.9611 94.9671 55.0953ZM71.6905 25.3718C72.2948 25.4206 72.8948 25.2366 73.3679 24.8574C74.7713 23.6049 72.8087 21.223 70.863 22.5035C69.3421 23.5043 70.2703 25.3159 71.6905 25.3718ZM71.0698 22.8445C71.4499 22.5665 71.9227 22.4462 72.3894 22.509C72.6226 22.543 72.8448 22.6303 73.0387 22.7641C73.2327 22.8979 73.3932 23.0747 73.5077 23.2806C73.8879 24.371 72.8758 25.0251 71.7017 24.958C70.6785 24.9021 69.9516 23.6105 71.0698 22.8445ZM23.6554 49.9792C23.5436 49.9345 23.6554 49.9792 22.8503 50.7955C22.0451 51.6119 21.2959 52.0592 21.3686 52.1934C21.4413 52.3276 22.1178 51.9921 22.2297 51.9306C22.589 51.7054 22.913 51.4285 23.1914 51.1087C23.3871 50.8794 23.8623 50.0687 23.6554 49.9792ZM32.2884 14.0606C32.3164 13.9264 31.9418 13.809 31.6678 13.8425C31.0639 13.9208 30.8123 14.4016 30.9409 14.4855C31.412 14.4262 31.8685 14.2822 32.2884 14.0606ZM33.6415 16.1349C33.8001 16.1953 33.9718 16.2127 34.1392 16.1853C34.2138 16.171 34.2856 16.1445 34.3516 16.107C34.4189 16.0761 34.4749 16.025 34.512 15.961C34.549 15.8969 34.5653 15.8229 34.5585 15.7491C34.5585 15.2347 33.8428 14.0997 33.6527 14.2227C33.5856 14.2618 33.6024 14.2898 33.7086 14.6421C33.7767 14.883 33.8627 15.1185 33.9658 15.3466C34.025 15.4799 34.0718 15.6184 34.1056 15.7603C33.9896 15.8675 33.843 15.9359 33.6863 15.956C33.6745 15.9531 33.6623 15.9525 33.6503 15.9543C33.6384 15.9561 33.6269 15.9602 33.6165 15.9664C33.6061 15.9726 33.597 15.9809 33.5898 15.9906C33.5826 16.0003 33.5774 16.0114 33.5745 16.0231C33.5715 16.0349 33.5709 16.0471 33.5727 16.0591C33.5745 16.071 33.5786 16.0825 33.5848 16.0929C33.5911 16.1033 33.5993 16.1124 33.609 16.1196C33.6187 16.1268 33.6298 16.132 33.6415 16.1349ZM33.4514 18.2932C33.4888 18.3787 33.5445 18.455 33.6146 18.5166C33.6847 18.5782 33.7674 18.6237 33.857 18.6499C33.9466 18.676 34.0409 18.6821 34.1331 18.6678C34.2253 18.6535 34.3133 18.6192 34.3908 18.5672C34.4121 18.5584 34.4294 18.5423 34.4397 18.5217C34.45 18.5012 34.4525 18.4776 34.4467 18.4553C34.402 18.3267 34.2901 18.4889 34.005 18.3267C33.9459 18.2909 33.8967 18.241 33.8615 18.1815C33.8264 18.122 33.8066 18.0547 33.8037 17.9857C33.8069 17.9133 33.8255 17.8424 33.8583 17.7778C33.8911 17.7132 33.9373 17.6564 33.9938 17.611C34.0446 17.5841 34.1012 17.57 34.1587 17.57C34.2162 17.57 34.2729 17.5841 34.3237 17.611C34.4131 17.6837 34.5138 17.544 34.4243 17.4769C33.8876 16.8562 33.1327 17.6446 33.4514 18.2932ZM34.7598 42.224C34.6286 42.2264 34.5 42.2613 34.3856 42.3256C34.2712 42.3899 34.1745 42.4815 34.1041 42.5923C34.0338 42.7031 33.992 42.8295 33.9825 42.9604C33.973 43.0913 33.9961 43.2225 34.0497 43.3423C34.4187 44.086 35.688 43.812 35.6656 43.0068C35.6609 42.8948 35.6332 42.7849 35.5844 42.6839C35.5356 42.583 35.4667 42.493 35.3818 42.4197C35.297 42.3464 35.198 42.2912 35.0911 42.2576C34.9841 42.2239 34.8714 42.2125 34.7598 42.224ZM35.2463 43.1802C35.2396 43.2349 35.2223 43.2877 35.1953 43.3357C35.1683 43.3837 35.132 43.426 35.0887 43.46C35.0453 43.494 34.9957 43.5191 34.9426 43.5339C34.8896 43.5488 34.8341 43.553 34.7794 43.5464C34.7247 43.5398 34.6718 43.5225 34.6238 43.4954C34.5758 43.4684 34.5336 43.4322 34.4996 43.3888C34.4656 43.3454 34.4404 43.2958 34.4256 43.2428C34.4108 43.1897 34.4065 43.1342 34.4131 43.0795C34.4131 43.0284 34.4233 42.9777 34.443 42.9306C34.4628 42.8834 34.4917 42.8406 34.5281 42.8047C34.5645 42.7688 34.6077 42.7405 34.6552 42.7215C34.7026 42.7024 34.7534 42.693 34.8045 42.6937C34.8689 42.6868 34.934 42.6948 34.9948 42.7173C35.0555 42.7397 35.1102 42.7759 35.1546 42.823C35.1991 42.8701 35.232 42.9269 35.2508 42.9889C35.2696 43.0508 35.2738 43.1163 35.263 43.1802H35.2463ZM34.6088 46.015C34.4771 46.0159 34.3477 46.0499 34.2325 46.1138C34.1172 46.1777 34.0199 46.2695 33.9492 46.3807C33.8786 46.4919 33.837 46.6191 33.8282 46.7505C33.8193 46.882 33.8436 47.0136 33.8987 47.1332C34.2622 47.8657 35.537 47.6085 35.5146 46.7977C35.5091 46.686 35.481 46.5765 35.4319 46.4759C35.3828 46.3753 35.3139 46.2857 35.2292 46.2126C35.1445 46.1394 35.0459 46.0841 34.9393 46.0502C34.8327 46.0162 34.7202 46.0042 34.6088 46.015ZM35.0953 46.9711C35.097 47.0314 35.0859 47.0915 35.0626 47.1472C35.0393 47.2029 35.0044 47.2531 34.9602 47.2942C34.916 47.3354 34.8635 47.3667 34.8063 47.386C34.749 47.4053 34.6883 47.4121 34.6282 47.4061C34.5681 47.4001 34.51 47.3814 34.4577 47.3511C34.4055 47.3209 34.3602 47.2798 34.325 47.2307C34.2899 47.1816 34.2656 47.1256 34.2538 47.0663C34.242 47.0071 34.2429 46.946 34.2566 46.8872C34.2581 46.7844 34.2999 46.6862 34.3732 46.6141C34.4464 46.5419 34.5451 46.5014 34.648 46.5014C34.7096 46.4978 34.7713 46.5077 34.8287 46.5303C34.8861 46.553 34.9379 46.5879 34.9805 46.6326C35.0231 46.6773 35.0554 46.7307 35.0752 46.7892C35.095 46.8476 35.1019 46.9097 35.0953 46.9711ZM32.2605 14.8154C32.2605 14.9048 32.294 14.9943 32.3276 15.1844C32.3337 15.2208 32.3469 15.2557 32.3665 15.287C32.3862 15.3182 32.4118 15.3453 32.442 15.3666C32.4721 15.3879 32.5062 15.4031 32.5422 15.4111C32.5782 15.4192 32.6155 15.4201 32.6519 15.4137C32.7243 15.4013 32.789 15.361 32.8319 15.3013C32.8748 15.2417 32.8925 15.1675 32.8811 15.095C32.8811 14.9943 32.8308 14.8545 32.8196 14.7539C32.8115 14.6797 32.7742 14.6119 32.716 14.5652C32.6578 14.5185 32.5834 14.4969 32.5093 14.5051C32.4352 14.5132 32.3673 14.5505 32.3206 14.6087C32.274 14.6669 32.2523 14.7412 32.2605 14.8154ZM34.6759 14.7427C34.6854 14.8084 34.7184 14.8684 34.7688 14.9116C34.8192 14.9548 34.8836 14.9782 34.9499 14.9775C34.9904 14.9771 35.0304 14.9681 35.0671 14.951C35.1039 14.934 35.1366 14.9093 35.163 14.8786C35.1895 14.8479 35.2091 14.8119 35.2205 14.7731C35.232 14.7342 35.235 14.6934 35.2295 14.6532C35.1848 14.4072 35.1736 14.3793 35.1624 14.3122C35.1535 14.238 35.1155 14.1705 35.0568 14.1243C34.9981 14.0782 34.9234 14.0573 34.8493 14.0662C34.7751 14.075 34.7076 14.113 34.6614 14.1718C34.6153 14.2305 34.5944 14.3051 34.6033 14.3793C34.62 14.4575 34.6424 14.547 34.6759 14.7427ZM43.0126 50.7005C43.0797 50.7676 43.1859 50.6669 43.1188 50.5998C41.7657 48.9728 41.4414 47.3289 41.6819 45.2713C41.685 45.2605 41.6855 45.2491 41.6834 45.238C41.6814 45.227 41.6768 45.2166 41.67 45.2076C41.6632 45.1986 41.6545 45.1913 41.6444 45.1863C41.6343 45.1813 41.6232 45.1787 41.612 45.1787C41.6007 45.1787 41.5896 45.1813 41.5796 45.1863C41.5695 45.1913 41.5607 45.1986 41.5539 45.2076C41.5472 45.2166 41.5426 45.227 41.5405 45.238C41.5385 45.2491 41.539 45.2605 41.5421 45.2713C40.9718 47.3457 41.3688 49.2132 43.0126 50.7005Z" fill="black"/>
<path d="M54.4413 44.6506C54.368 44.6428 54.2945 44.6642 54.2369 44.7103C54.1793 44.7564 54.1422 44.8234 54.1338 44.8966V45.2657C54.1338 45.3398 54.1632 45.4109 54.2157 45.4634C54.2681 45.5158 54.3392 45.5452 54.4134 45.5452C54.4875 45.5452 54.5586 45.5158 54.611 45.4634C54.6635 45.4109 54.6929 45.3398 54.6929 45.2657V44.9693C54.6984 44.9317 54.6961 44.8934 54.6863 44.8567C54.6765 44.82 54.6592 44.7857 54.6357 44.7558C54.6121 44.726 54.5828 44.7013 54.5493 44.6832C54.5159 44.6651 54.4792 44.654 54.4413 44.6506ZM57.4998 45.5844C57.5358 45.5891 57.5724 45.5865 57.6074 45.5769C57.6425 45.5674 57.6752 45.5509 57.7038 45.5285C57.7325 45.5062 57.7563 45.4783 57.7741 45.4466C57.7919 45.4149 57.8031 45.38 57.8073 45.3439V44.9805C57.8073 44.9064 57.7778 44.8353 57.7254 44.7828C57.673 44.7304 57.6019 44.7009 57.5277 44.7009C57.454 44.7024 57.3837 44.7323 57.3316 44.7844C57.2795 44.8365 57.2496 44.9068 57.2482 44.9805V45.2769C57.2443 45.3136 57.2478 45.3507 57.2583 45.3861C57.2689 45.4215 57.2864 45.4545 57.3098 45.4831C57.3332 45.5117 57.362 45.5354 57.3947 45.5527C57.4273 45.5701 57.463 45.5809 57.4998 45.5844ZM55.1738 47.4966C55.631 47.6417 56.1172 47.6706 56.5884 47.5805C56.6443 47.5805 56.6387 47.491 56.5884 47.4966L56.2361 47.4463C55.8882 47.4174 55.5385 47.4174 55.1905 47.4463C55.1346 47.4016 55.1179 47.491 55.1738 47.4966Z" fill="black"/>
</svg>
